<svg enable-background="new 0 0 186.3 187.5" viewBox="0 0 186.3 187.5" xmlns="http://www.w3.org/2000/svg"><path d="m54.8 62.2c.9-.4 1.8-.9 2.8-1.3 1.4-.6 2.8-1.2 4.3-1.7 1.1-.4 2.4-.5 3.5-.7h.2c.6-.3 1.1-.2 1.6.2.1.1.3.1.4.1 0-.1.1-.3 0-.4-.2-.4-.4-.9-.6-1.3-.1-.3 0-.6-.2-.9-.5-1.1.4-.7.8-.8 2-.2 3.9-.4 5.9-.6.8-.1 1.7.1 2.5.1 1 .1 2 .2 2.9.3.4 0 .8 0 1.1-.1 1-.2 2-.3 3.1-.1.6.1.4.6.4 1 0 .2-.1.4-.1.5.1.5.2 1-.6 1v1c0 .1.2.2.3.1 1.5-.6 3-.2 4.5 0 1.8.3 3.5.8 5.2 1.4 2.3.7 4.3 1.8 6.2 3.3 1.5 1.2 3.2 2.3 4.8 3.4 1.1.8 2.2 1.7 3.3 2.6 1 .8 1.9 1.7 2.9 2.6 2.3 2 3.9 4.6 5.5 7.1 2.3 3.5 3.9 7.3 5.1 11.2.4 1.5.6 3 .7 4.5.2 2.6.2 5.2.3 7.8 0 .9.2 1 1.1 1.2.4 0 .7.2 1.1.3.5.1 1.1.1 1.6.2s.7.3.4.7c-.4.7-.8 1.4-1.3 2-.4.5-1.1.5-1.7.4-.3 0-.5 0-.3.4.5 1.1-.3 1.9-.6 2.7-.1.2-.8.3-1 .2-.4-.2-.6-.7-.9-1.1v-.1c.1 0 .1.1.1.1.2.2.3.5.6.7.2.1.4.1.6.2-.1-.1-.2-.3-.2-.4s0-.3.1-.4c.3-.3.6-.7.8-1 0-.1 0-.2 0-.2-.1 0-.2 0-.2 0-.3 0-.7.1-1 0-.2-.1-.1-.5-.2-.8 0-.1 0-.3 0-.3-.4-.1-.9-.2-1.3-.1-.4 0-.4.3-.3.7.2.5.2 1 .2 1.5-.1.5-.6.6-.9.2-.4-.4-.6-.8-.4-1.4 0-.1.1-.2.1-.3s-.1-.3-.2-.4-.3 0-.4 0v.4c0 .5.2 1.1 0 1.6-.1.3-.6.6-.9.8-.2-.3-.5-.7-.6-1.1-.1-.2.1-.5.2-.8 0-.2 0-.4 0-.5-.1 0-.3.1-.4.1-.9.4-.9.4-.7 1.5.1.3-.1.7-.1 1.1-.2-.3-.6-.5-.7-.8-.1-.4-.1-.8-.2-1.2 0-.6-.6-1.2-1.2-1.1-.5.1-.7.6-.4 1 .3.6.2 1.3-.4 1.6-.2.1-.5 0-.6-.1-.6-.6-.9.1-1.2.2.1.1.1.3.2.3.9.1 1.8.2 2.7.3 2.2.4 4.2-.4 6.3-.6.2 0 .5.2.7.4.5.4.9.7.9 1.5 0 .4.4.9.5 1.3.2.9.3 1.7.3 2.6.1 2.4.1 4.9.2 7.3 0 2.4.1 4.8.1 7.1.1 3 .2 6 .1 9.1 0 1.5-.4 3-.5 4.5-.1.8-.2 1.7-.3 2.5-.1.6.2 1.1.7 1.6.3.3.5.7.8 1.1s.3.8-.1 1.2c-.1.1-.1.5-.1.8.1.4.2.9.2 1.3 0 .2-.3.5-.5.7-.1.1-.1.2-.2.3.1 0 .2.1.4.1.6 0 1.3-.1 1.9-.1.3 0 .7 0 1 .1.2.1.3.3.5.5-.1.1-.3.2-.4.4-.1.1-.2.2-.2.3-.1 1.2 0 2.5-.2 3.7-.1.8.3 1 .9 1.1.5.1 1.2.1 1.5.4.2.2-.1.9-.1 1.4 0 1 .1 2 .1 3 0 1.4-.2 2.8-.2 4.2v.2c0 1.1-.1 2.2-.1 3.3 0 .2.1.4.2.6.1.1.2.2.3.4-.2.1-.3.3-.5.3-.4.1-.9-.3-1.1.4h-.2c-.6-.4-1.2-.4-1.9-.2-.5.1-1.1 0-1.6 0-2.5-.1-5.1-.3-7.6-.2-2 0-4 .5-6 .7-.8.1-1.6.1-2.3 0-.6 0-.8-.7-.9-1.4 0-.7-.2-1.5-.2-2.2 0-1.8.1-3.7.1-5.5 0-.6-.2-.7-.8-.7-3.7 0-7.3-.1-11-.1-.7 0-1.4.1-2.1.1-1.1 0-2.1-.2-3.2-.3h-.1c-.2 0-.5.2-.6.1-.4-.5-.8-.9-1.1-1.5-.2-.4-.4-.8-.4-1.2-.1-.5-.3-.5-.6-.4-1.2.2-2.4.4-3.5.6-1.5.2-3 .2-4.4.3-1 0-2.1-.1-3.1-.1-1.3 0-2.5.1-3.8.1-1.7 0-3.5-.1-5.2-.1-.1 0-.3-.1-.4-.1-.5-.1-.9.2-1 .7v1c0 .2-.1.4-.2.5-.1-.1-.3-.1-.4-.3-.4-.4-.6 0-.9.1-.7.4-1.4.8-2.1 1.1-.3.1-.6-.1-1-.1-.3 0-.5 0-.8.1-.4.2-.8.5-1.2.6-.3.1-.7.4-1 0-.1-.1-.3 0-.5 0-2 0-4-.1-5.9 0-1.5.1-3 .4-4.5.3-.7 0-1.7.4-2.3-.4-.2-.2-.2-.5-.2-.8 0 0 .4-.1.6-.1 1.1-.1 2.2 0 3.2-.2.5-.1 1-.5 1.5-.8.6-.4 1.2-.8 1.7-1.2.1-.1.2-.1.2-.2-.1-.1-.2-.2-.3-.2-.5.1-1.1.2-1.6.4-.8.3-1.5.8-2.2 1.2-.1.1-.4-.1-.6-.1.1-.2.1-.5.3-.6.4-.2.9-.3 1.4-.5.2-.1.3-.1.5-.2-.2-.1-.3-.2-.5-.2-.7 0-1.4-.1-2.1 0-.3 0-.7.2-1 .4-.6.3-1.1.6-1.6.9-.2.1-.4-.1-.7-.3-.1-.1-.2-.2-.3-.3-.1.2-.2.3-.2.5-.1 1.1-.2 2.2-.3 3.4-.1 1.9-.2 3.8-.3 5.7-.1.9-.1 1.7-.3 2.6 0 .2-.3.4-.5.7-.2-.2-.5-.4-.6-.7-.2-1.2-.2-1.1-1.4-.9-.9.2-1.9.2-2.8.3-1.5.2-3-.2-4.5-.3-1.7 0-3.3 0-5 .1-2 .1-3.9.3-5.9.8-.6.2-1.2 0-1.5.7-.1.2-.8-.2-.8-.6.1-1.5.2-2.9.3-4.4 0-1.7.5-3.5.2-5.2-.2-1 .1-2 .1-3.1s.6-1.3 1.4-1.3c.5 0 .5-.3.6-.7.2-1.8.4-3.5.5-5.3 0-.5.3-.7.8-.7.2 0 .5-.1.7 0 .7.3.8-.2.6-.6-.3-.9.1-1.6.6-2.3.4-.6 1-1 1.5-1.4.4-.4.4-.8.3-1.2-.4-1.2-.2-2.4-.1-3.5.1-.7 0-1.4 0-2.1 0-2 .1-4.1.1-6.1.1-1.5.2-3 .3-4.5.1-2 .3-4 .4-5.9.1-1.3.2-2.5.3-3.8.1-1.9.3-3.8.4-5.7.1-.9.2-1.8.3-2.7 0-.2.1-.4.2-.6 0-.2 0-.5-.1-.7-.1-.3-.2-.6-.2-1 0-.1.2-.2.2-.2.1 0 .2.2.2.3-.2.5.1.5.4.4 1-.1 1.9.1 2.9-.1.6-.1 1.3.1 1.9.1 1.1.1 2.2.1 3.3.1.2 0 .4-.2.6-.3-.2-.1-.4-.1-.5-.1-1.5-.1-2.9-.1-4.4-.2-1 0-2.1-.1-3.1-.1-.2 0-.3 0-.5-.1-.5-.3-.9-.7-1.5-.2-.2.2-.7-.7-.5-1.1.3-.6.6-1.1 1-1.6.2-.3.4-.5.1-.8-.3-.4-1-.3-1.1.3-.1.8-.8.8-1.2.8-.7 0-1.3-.7-1.3-1.3 0-.4.1-.9-.4-1-.1 0-.1-.2-.1-.3.1-.6.2-1.3.2-1.9 0-.4.2-.6.5-.6.5 0 1.1.2 1.4-.1.3-.2.1-.9.3-1.3.4-.9.2-1.7.2-2.6 0-1.1.2-2.2.4-3.3.3-1.5.7-2.9 1-4.4.5-2.3 1.2-4.5 2.2-6.6 1-2.2 2-4.3 3.5-6.3 1.2-1.6 2.4-3.1 3.6-4.6.6-.8 1.3-1.5 2-2.2 1.9-2 4.1-3.6 6.4-5.2 2.4-1.7 4.9-3.2 7.5-4.4.8-.1 1.7-.4 2.7-.9.1.2.1.3.2.4.1-.1.2-.2.3-.3-.2.1-.4 0-.5-.1m-6.8 28.5v.5c.1-.1.2-.2.3-.3.3-.4.6-.9.9-1.3.8-1 1.5-1.9 2.3-2.9.1-.1.1-.2.1-.3-.1 0-.2.1-.3.1-.1.1-.2.2-.3.3-.9 1-1.8 2.1-2.6 3.1.2-.4.5-.8.7-1.3.1-.2.1-.4.2-.5-.2.1-.4.1-.6.1-.4-.3-.7-.6-1.1-.8-.1-.1-.4 0-.5.1-.4.4-.8.8-1.1 1.3 0 .1 0 .3.1.3.5.3.9.6 1.4.7.2 0 .5-.6.7-.9h.1c-.5.9-1 1.9-1.6 2.7.1-.2.2-.5.3-.7s.1-.5 0-.6c-.3-.3-.7-.5-1.1-.7-.2-.1-.6.1-.7.3-.3.4-.6.9-.8 1.4-.4.7-.4.8.4.8.1 0 .3-.1.4 0 .6.5 1 .3 1.4-.2.3.3.5.2.7-.2.3-.5.5-.8.7-1m40.9 7c.2-.1.4-.3.6-.4-.1-.1-.1-.2-.2-.4l1.4-1.4c1.6-1.5 3.1-3.1 4.7-4.6.1-.1.1-.3.1-.4-.1 0-.3.1-.4.1-1.5 1.4-3 2.8-4.5 4.2-1.1.9-2.2 1.8-3.3 2.7-.7.6-1.3 1.2-1.9 1.9-.4.4 0 .8.3 1 .1.1.4.1.5 0 .9-.8 1.8-1.8 2.7-2.7m29.6 51.2c-.3-.1-.6-.1-.9-.2 0 0 0 .2-.1.2.3.1.5.1.8.2 0 0 0 0 .1.1-.4.3-.8.3-1.3 0-.3-.2-.8-.3-1.2-.3-.8 0-1.6 0-2.4 0s-1.5-.2-2.3-.3c-.1 0-.2.1-.4.2.4.4.3 1 1 1.3 1.3.5 2.5.6 3.8.6 1.1 0 2.3.2 3.1-1 .2-.3.4-.5.6-.7-.3-.1-.5 0-.8-.1m-44.5-76.4c.4.1.8.3 1.2.3 1.5.1 3 .1 4.4.2.7.1 1.4.4 2 .6.1 0 .1.1.2.2-.1 0-.1.1-.2.1-.2 0-.6-.1-.5.4 0 .4.1.6.6.7.4.1.8.3 1.2.4.1 0 .4-.1.4-.2 0-.5-.1-.9-.1-1.4 0-.1.1-.2.1-.2.5 0 .8.6.6 1.1-.1.3-.1.7.1.8.3.2.7.3 1.1.5.1-.3.1-.6.2-.8s.2-.4.3-.5c0 0 .2.1.3.2.1.2.2.4.1.5-.3.7 0 1 .6 1.2.9.3 1.1.4 1.2-.5.1-.5.3-1.2-.3-1.6-1.6-1-3.3-1.6-5.2-1.6-1 0-2.1-.1-3.1-.1-.1 0-.2 0-.2-.1.1 0 .2-.1.2-.1.3-.1.6-.3.8-.4 0 0 0-.1.1-.2-.1 0-.1 0-.2 0-.8.1-1.7.1-2.5.2-.6 0-1.2 0-1.8 0-.5 0-1 0-1.5 0-.2 0-.4.1-.6.2.1.1.3.2.3.4-.2.1-.4.2-.6.3.2 0 .5.1.7.1 0-.4 0-.6.1-.7m-28.9 36.5c.1 0 .2-.1.2-.1-.1-.1-.2-.2-.3-.2-.5 0-1 0-1.6 0-.1 0-.2.1-.4.1.1.1.2.2.3.2.7.3 1 .8 1 1.6 0 .1.1.3.1.4.1.3.2.4.5.1s.8-.5 1.2-.5c1.9-.3 3.8-.7 5.7-.8 1.9-.2 3.9-.2 5.9-.3 1.4-.1 2.8-.1 4.1-.1h.2c.1-.1.2-.2.3-.2-.1-.1-.2-.2-.3-.2-.4 0-.7-.1-1.1-.1-.7 0-1.4.1-2.1.1-1.9 0-3.9-.1-5.8-.1s-3.7.2-5.6.3c-.1 0-.3-.2-.4-.2-.3-.1-.6-.2-.9-.3-.1 0-.1.3-.3.4-.1.1-.3.2-.4.2.1-.1-.1-.2-.3-.3m-1.3 45.6c-.1-.2-.2-.4-.3-.6 0-.1-.1-.2 0-.4s.3-.4.3-.7c0-1.9 0-3.9 0-5.8 0-1.6 0-3.3 0-4.9 0-.4.1-.8.1-1.1 0 .4 0 .7.1 1.1v.1l.2.2c0-.1.1-.1.1-.2 0-.2 0-.4 0-.6 0 0 .1-.1.1-.1.1 0 .2.1.3.1 0-.2 0-.3-.1-.4 0-.1-.2-.1-.2-.1-.1-.6-.1-1.1-.1-1.7 0-.5 0-.5-.5-.5 0 0-.1-.1-.1-.2 0-.7 0-1.4 0-2.1 0-.4-.1-.8.4-1.1 0 0-.1-.3-.1-.4 0-.2-.1-.4-.1-.6 0 0 .1-.1.1-.1h.2c0-.2 0-.5-.1-.6s-.2-.1-.2-.2c.1-2 .2-4 .3-6 0-.8-.1-1.6-.1-2.4s.2-1.7.3-2.5c.1-.9.1-1.9.2-2.8.2-2.2.4-4.4.6-6.5 0-.3.1-.6.2-.9-.3 0-.7.1-1 0-.6-.1-.9.1-1 .7-.1.5-.1 1-.1 1.4-.1 1.3-.2 2.6-.3 3.9-.1 2.3-.3 4.6-.4 6.9 0 1.4.1 2.8.1 4.2 0 2.8-.1 5.5-.1 8.3 0 2.2-.1 4.3-.1 6.5v5.6c0 .6.2 1.2.4 1.8.1.3.3.6-.3.5-.1 0-.3.3-.3.4 0 1.1.1 2.2.1 3.3 0 .1.1.2.2.2.5 0 1 .1 1.5 0 .1 0 0-.7.1-1 0-.3.1-.5.2-.8.7.2.5.7.5 1.2 0 .4 0 .5.5.5 4.7-.1 9.3-.1 14-.2h.3c.1-.1.3-.3.3-.3-.3-.8.4-1.5-.1-2.4-.2-.4-.3-.6-.7-.6-1.2.1-2.3.2-3.5.1-2.1 0-4.1-.1-6.2-.3-1.5-.1-3.1-.4-4.6-.5-.1 0-.3.1-.3.2-.1.1 0 .2 0 .4.4-.1.3.2.4.5 0 .1.2.2.4.2h.2c-.1 0-.1.1-.2.1-.1.1-.2.2-.2.3.1 0 .2.1.3.1h2.4c.1 0 .2.1.2.1-.1 0-.1.1-.2.1-1 .1-2 .1-3 .2-.8.1-.9.3-1.1.4m30.4-68c0-.2-.1-.3-.1-.5 0-1.4.1-2.8.1-4.1 0-1.5 0-2.9 0-4.4 0-.4-.2-.4-.5-.4-.4.1-.8.2-1.2.3s-.8.4-1.2.4c-.6 0-1.3-.2-1.9-.3-.1 0-.2 0-.2-.1.1 0 .2 0 .3-.1.2-.1.3-.3.5-.5-.2-.1-.5-.2-.7-.2-.3 0-.7.2-1 .3-1.5.4-3.1.8-4.5 1.3-2.8 1.1-4.9 3.1-7 5-1.2 1.1-2.2 2.5-3.3 3.7-.3.3-.2.3.2.4 1.4.3 2.4 1.1 3.3 2.1.6.6 1.1 1.3 1.7 1.9 1 1.2 2.1 2.4 3 3.7 1.1 1.5 2.4 2.8 3.6 4 .3.3.7.5 1.2.1 1-.7 2.2-1.4 3.3-2 .9-.5 1.8-.8 2.7-1.2.4-.2.9-.4 1.3-.5s.6-.2.6-.6c-.1-1.3-.1-2.7-.1-4 0-1.4 0-2.9.1-4.3.1.1.2.3.2.4v4.9c0 1 .1 2.1.1 3.1 0 .1.1.3.2.4.1-.1.2-.3.2-.4 0-.5-.1-1-.1-1.4-.1-2.7-.1-5.3-.1-8 0-.1 0-.2 0-.3-.1-.1-.3-.2-.4-.3v.3c-.1.5-.1.9-.3 1.3m19.4 4.6c0 .2-.1.3-.1.5.1-.1.3-.1.4-.2s.2-.3.3-.4c-.2 0-.4.1-.5 0 .8-.8 1.7-1.6 2.5-2.5 1-1.1 1.4-1.3.3-2.8-.2-.3-.4-.7-.6-1-1-1.5-2.1-2.8-3.7-3.6-.8-.4-1.7-.7-2.1-1.6 0-.1-.2-.1-.3-.2-1.3-.6-2.6-1.2-4-1.7-1-.3-2.1-.5-3.1-.7-.4-.1-.8.2-1.1.1-1.7-.3-3.3-.6-5-.3-.6.1-.8.4-.7.9 0 .1.1.1.2.2.1-.1.2-.1.2-.2.1-.1.1-.2.1-.3.1.1.1.2.2.4v.4c-.1 2.6-.3 5.1-.4 7.7-.1 2.9 0 5.8 0 8.7 0 .4.2.6.6.6.2 0 .4-.1.7-.1.4 0 .7 0 1.1.1-.3.1-.7.1-1 .2-.2 0-.4.1-.6.2.2.1.3.2.5.2 1 .2 2 .3 3 .5.3.1.6.1.9.2 1.6.3 2.5 1.4 3.4 2.6.2.3.5.5.9.2l2.4-2.4c1.5-1.5 3-3 4.6-4.4 0-.6.4-.9.9-1.3m-54.1 41.1c-.2 0-.3 0-.5 0-.3 0-.7.1-1 .1-.1 0-.4-.3-.4-.3.1-.2.2-.4.4-.6.1.1.2.2.3.2.4.1.7.1 1.1.1 0 0 .1-.4.1-.6 0-.7 0-1.4 0-2.1 0-.6.2-1.4-.7-1.5 0-.1-.1-.2-.1-.3s.2-.3.2-.4c.1.1.1.2.2.3s.2.2.3.2c0-.1.1-.2.1-.3.1-.5.1-1 .1-1.4.1-.9.1-1.9.1-2.8.1-.9 0-1-.9-1.2-.3-.1-.5-.2-.8-.4-.1 0-.1-.3-.1-.4.2-.1.4-.2.5-.1.4.1.7.3 1 .4.1 0 .3-.2.3-.3.1-.8.1-1.7.2-2.5 0-.5.1-.9-.6-.5-.2.1-.5.1-.7 0-.1 0-.2-.2-.4-.3.1-.1.2-.2.3-.2.4-.1.7-.1 1.1-.2.2-.1.4-.3.5-.4.1-.2.1-.4.1-.6 0-.5.1-1-.1-1.4-.1-.2-.7-.1-1-.2-.2-.1-.4-.4-.6-.6h.6c.2 0 .4.1.6.1.5.1.7-.1.8-.6.1-1.3.3-2.7.4-4 .1-.8.1-.8.8-.3.4.3.5.1.5-.3 0-.3 0-.6 0-.9 0-.1-.2-.4-.2-.4-.6.1-1.1.2-1.7.3.1.2.1.4.2.6 0 .1-.1.1-.2.2-.6.5-1.2 1.2-1.9 1.5-.4.2-1-.2-1.6-.3-.1 0-.2-.4-.2-.6 0-.1 0-.3.1-.4-.2 0-.5 0-.6.1-.3.2-.7.5-.3 1 .1.2.1.5.1.8-.1 0-.2.1-.2 0-.2-.2-.4-.4-.5-.6s-.2-.5-.3-.6c-.4-.4-1.6-.7-2-.5-.1 0 0 .3-.1.5s-.2.5-.3.6c-.2.1-.5 0-.7-.1-.1-.1 0-.4 0-.6s.1-.6 0-.7c-.2-.1-.5-.2-.7-.1s-.3.3-.3.5c-.1.2 0 .5 0 .7 0 .5-.4.5-.7.3-.2-.2-.2-.6-.3-.9 0-.2-.1-.6-.1-.6-.4 0-.9.1-1.3.2-.1 0-.1.4-.1.5.1.4.1.7.3 1.1.1.2.3.4.5.4 2.6.1 5.2.1 7.8.2h.4c.5-.3 1-.4 1.4.1.2.2.5.4.5.5-.1.3-.3.6-.5.7-1.8.9-3.7 1.1-5.7.7-.6-.1-1.1-.1-1.7-.1-.8 0-1.7 0-2.5 0-.5 0-1.1.1-1.2.7-.2 1.3-.5 2.6-.6 4-.2 2.6-.3 5.2-.4 7.7-.1 1.4-.2 2.7-.3 4.1-.2 2.5-.3 5.1-.4 7.6v2.9c0 2.5-.1 5.1-.1 7.6 0 .6 0 1 .8.5.1-.1.3 0 .4 0 0 .1-.1.2-.1.3-.4.5-.3.7.3.8.2 0 .4.1.6.1 1 0 2.1 0 3.1-.2 1.1-.1 2.2-.2 3.2-.6.6-.2 1.1-.2 1.7-.3.1 0 .3-.2.4-.4.1-1 .3-2.1.3-3.1 0-2.3-.1-4.6-.1-6.9 0-2.2 0-4.3.1-6.5.1-1.7.3-3.5.4-5.2.1-1.4.2-2.7.3-4.1.1-2.2.2-4.4.3-6.6 0-.6 0-1.2 0-1.8 0-.1.2-.3.3-.4.1.1.3.3.4.4 0 .5.1 1 0 1.6-.2 2.1-.4 4.2-.6 6.3-.1.9-.1 1.8-.2 2.6-.2 2.2-.5 4.4-.5 6.7-.1 2.4 0 4.7 0 7.1v.5c0 2.2.1 4.4.1 6.6 0 1 0 2-.2 3s.7 1.8.2 2.8c0 .1.1.2.1.4.1.2.3.4.3.6 0 .9.3 2-.8 2.6 0 0 .1.2.1.2 1.1.2 2.1.3 3.2.4.2 0 .5-.4.5-.4-.6-1.4-.3-2.9-.4-4.4 0-.5 0-.9-.1-1.4-.4.1-.8.2-1.2.3 0 0 0 0-.1 0-.2-.1-.4-.1-.6-.2.1-.1.2-.3.3-.4.1-.2.3-.4.4-.5 0-.1.1-.1.1-.2 0 .1 0 .1.1.2.1.2.2.3.3.5.1-.2.2-.4.2-.6 0-.6-.1-1.2-.1-1.9 0-.4-.1-.8-.1-1.2-.4.1-.7.2-1.1.2-.3 0-.5-.2-.8-.3.1-.1.1-.3.2-.4.2-.2.4-.4.7-.1 0 .1.2.1.3.1.7-.2 1.4-1 1.4-1.8 0-1.9-.1-3.9-.1-5.8 0-.1.1-.2.1-.3v.3c.1 1 .1 2.1.1 3.1v.3c.1.1.2.2.3.3 0-.1.1-.2.1-.3 0-.9 0-1.8 0-2.7 0-.1 0-.2.1-.2 0 .1.1.2.1.3v3.1c0 .1.1.2.1.3.1-.1.2-.2.2-.3.1-.9.3-1.8.3-2.7 0-2.9-.1-5.7-.1-8.6 0-2.2.2-4.4.3-6.6 0-.1 0-.3 0-.4 0-.4.1-.8.1-1.2 0-.7-.1-1.5-.1-2.2.1-1.8.2-3.5.3-5.3 0-.1 0-.2-.1-.3-.1.1-.2.2-.2.3-.1.6-.1 1.2-.2 1.8-.2 2-.4 3.9-.6 5.9 0 .2.4.8-.4.7v.2c.1.2.2.4.2.6 0 1.6-.1 3.1-.1 4.7 0 1.5.1 3 .1 4.5 0 1 .1 1.9.1 2.9v1.6c0 .1-.1.2-.2.3 0-.1-.1-.2-.1-.3-.1-1.7-.1-3.3-.1-5 0-1.1 0-2.3 0-3.4 0-.3 0-.5-.4-.4-.1 0-.1.3-.1.4v.5c.1 1.4 0 2.6-.1 3.7m-1-32.9c.7.1 1.1-.1 1.1-.9 0-.1.1-.2.1-.4.5-1.8 1-3.6 1.6-5.3.1-.4 0-.7-.4-.9-1.3-.5-2.6-.9-3.8-1.5-1.6-.7-3.2-1.6-4.8-2.4-.1 0-.2-.2-.2-.2.1 0 .3-.1.4 0 .7.3 1.3.7 2 1 2.1 1 4.3 1.9 6.4 2.9.7.3.9.1 1.2-.4.8-1.5 1.6-3.1 2.6-4.6.6-1 1.4-1.8 2.1-2.7 1-1.1 2-2.1 3.1-3 1.2-1.1 2.6-2 3.9-3 .1 0 0-.3 0-.5.2-.1.5-.1.7-.3 1.4-.7 2.8-1.5 4.2-2.2 1.1-.6 1.2-.5.7-1.7 0-.1-.1-.3-.1-.4-1.2-2.8-2-5.8-2.7-8.8 0-.1 0-.2.1-.3.1.1.2.1.3.2.2.4.4.9.5 1.4.9 2.8 1.7 5.7 2.6 8.5.1.3.3.5.7.4.7-.3 1.5-.5 2.2-.8 2.3-1 4.7-1.5 7.2-1.7.5 0 .4-.4.4-.7-.2-1.1-.4-2.2-.6-3.3 0-.2-.2-.3-.4-.5-.1.2-.3.5-.3.6.1.6.4 1.1.5 1.7.1.4.2.9.3 1.3 0 .1-.1.2-.2.3 0-.1 0-.2-.1-.3-.2-.6-.3-1.2-.5-1.8-.7-2-1-4-1.2-6-.1-1.2-.2-2.3-.3-3.5 0-.1-.1-.4-.2-.4-.6-.1-1.3-.2-1.9-.3-.1 0-.2.1-.3.2.1.1.1.2.2.2.1.1.2.1.3.1-.1 0-.3.1-.4.1s-.2 0-.4 0c-4.3 1.2-8.4 2.7-12.4 4.6-3.1 1.5-6.1 3-8.7 5.2-1.2 1-2.6 1.9-3.7 3-1.9 1.9-3.7 4-5.4 6.1-1.5 1.8-2.9 3.8-3.9 6-1 2.1-2.2 4.2-2.7 6.5-.3 1.7-.7 3.5-1 5.2 0 .2 0 .2-.3.1-.1 0-.2 0-.2.1-.1.3-.1.5-.1.8 0 .1 0 .2.1.3.1 0 .2-.1.2-.1.1-.1.2-.1.3-.2v.4c-.1.2-.2.3-.3.5s-.1.3-.1.5h.4c1.1-.1 2.2-.2 3.3-.2 1.8.1 3.5.3 5.2.6.9.1 1.8.4 2.6.6-1.2 0-2.5-.1-3.7-.2-1.5-.1-3-.3-4.5-.4-.9 0-1.8.1-2.7.1h-.1c-.4-.1-1-.1-.7-.9.1-.2-.2-.5-.3-.7-.1.2-.2.4-.2.6-.1.8-.1 1.5-.1 2.3v.6c.1-.1.3-.2.4-.4.1-.1.2-.1.3-.2 0 .1 0 .3-.1.4-.1.4-.4.8-.4 1.2 0 .8.1 1.6.1 2.4 0 .1.2.4.4.4.6 0 1.2-.3 1.7-.2 2.2.1 4.4-.5 6.6-.3 1.1.1 2.1.2 3.2.3.6.1.7 0 .7-.6 0 0 .1-.1.1-.1.1-.2.3-.4.3-.7 0-.9-.1-1.8 0-2.7s.2-.8-.8-1c-.1.2-.1.1-.1 0m25.9 10.9c-.2.7-.5 1.5-.5 2.2v14.5c0 2.5-.2 5.1-.3 7.6-.1 2-.1 3.9-.1 5.9 0 1.5.2 3 .3 4.4v6.4c0 .4.1.7.2 1.1 0 .1-.1.3-.1.4-.3-.1-.6-.3-.8-.4s-.3-.2-.4-.3c0 .2-.1.5-.1.7.5 1.1 0 2.4 1 3.4 0 0-.1.2-.1.4-.5 1-.5 1.8.4 2.6.1.1.3.3.3.5-.1.7.5.7.8.7 1.8.1 3.5.2 5.3.3.9 0 1.8-.1 2.7-.1 1.5 0 3 .1 4.4.1 2.4.1 4.8-.3 7.1-.9 1.1-.2 1.3-.4 1.3-1.6 0-1.1-.1-2.2-.1-3.4 0-.6.3-1.4.1-1.9-.5-1.2-.1-2.4-.1-3.5 0-1.8.2-3.6.1-5.4-.1-2-.4-4-.5-6-.1-1.2-.1-2.3-.1-3.5-.1-1.8-.1-3.6-.1-5.4 0-1 .1-2 .1-2.9.1-1.9.1-3.9.1-5.8.1-2.2.1-4.4.1-6.6 0-.1 0-.2 0-.3.1-.8.2-1.6.2-2.5 0-.1-.3-.4-.4-.4-2.3-.1-4.7-.2-7-.3-.8 0-1.6.1-2.4.1-3.3 0-6.6-.1-9.9-.1-.1 0-.2 0-.3 0-.5.1-.8 0-1.2 0m25 45.3c.2-.1.3-.3.5-.3 1.8-.3 3.7-.5 5.5-.7.8-.1 1.6-.1 2.4-.2 1.7-.2 3.4-.4 5.1-.5.5 0 .9-.1 1.1-.7.1-.2.2-.4.3-.6 0 .2 0 .4.1.6 0 .1.2.2.3.4.1-.1.1-.2.2-.2.1-1.3.2-2.7.1-4 0-1.5-.2-3-.3-4.4-.1-1.3-.3-2.6-.4-4-.2-2.1-.6-4.2-.7-6.3-.1-2.2-.2-4.4-.1-6.6 0-1.5.2-3 .3-4.4.1-3.4.1-6.9.2-10.3 0-.4 0-.7 0-1.1 0-.5.1-1 .1-1.4 0-.1-.2-.2-.2-.2-.9.1-1.9.2-2.8.4-.9.1-1.8-.7-2.7-.2-.3.1-.6.1-.9.2-2.4 0-4.8 0-7.2 0-.6 0-1.2-.1-1.8-.3-.3-.1-.5-.3-.7-.5.1.3.2.6.2.9.1 1.2.1 2.3.1 3.5s-.1 2.5-.1 3.7c0 3.3.1 6.6.1 9.9 0 2.1.1 4.1.1 6.2 0 1.4.1 2.7.1 4.1.1 1.3.2 2.6.3 3.9.1 2.1.2 4.2.3 6.3 0 .7-.1 1.4-.1 2.1 0 1.5.1 3 .1 4.4 0 .9 0 1 1 .9 1.5 0 3-.1 4.5-.1s2.9.2 4.4.3h2.2 1.1 1.7c.3 0 .6 0 .9.1.2.1.4.3.6.4 0-.3.1-.5.1-.8s.1-.6 0-.8c-.2-.4-.6-.7-.8-1.1-.2.2-.5.4-.7.7-.1.2-.2.4-.3.6-.1.1-.2.2-.3.2-.5-.1-1-.2-1.5-.3-.1 0-.1 0-.2-.1.1 0 .1-.1.2-.1.4 0 .7.1 1.1 0 .3-.1.5-.4.7-.7-.2-.1-.5-.1-.7-.1-.1 0-.3.1-.4.1-1.1.2-2.3.3-3.4.4-1 .1-2 .1-2.9.2-.7 0-1.4.1-2.1.1-1.8.1-3.2.3-4.7.4m-44.7-22.9c0 .4-.1.8-.1 1.2 0 .9.1 1.8.1 2.7v6.1.5c-.1 1.4-.3 2.8-.4 4.2v1.8 1.4c0 .4 0 .9.2 1.3.1.2.6.2.9.2.3.1.7.1 1 .1 2 .2 4 .5 6 .5 2.1.1 4.2-.1 6.3-.1.2 0 .5-.3.5-.4.1-1.2.2-2.3.3-3.5.2-2.3.3-4.6.4-6.9s.2-4.5.3-6.8c0-.6 0-1.2 0-1.9 0-.3 0-.3.4-.6 0 0-.1-.3-.1-.4 0-.2 0-.4-.1-.5.5.1.2-.2.2-.3 0-.2-.2-.3-.2-.5 0-.6.1-1.3.1-1.9.1-1.9.2-3.8.3-5.6 0-1 .1-2 .1-2.9.1-1.5.1-3 .1-4.6 0-.2 0-.5 0-.7-.1-1.1.6-2.4-.8-3.2-.2-.1-.4-.2-.5-.3-.1.2-.2.4-.2.6-.1.2-.1.4-.2.6h-.1c0-.2 0-.4 0-.6 0-.1.1-.2.1-.2.1-.8 0-1-.8-.9-.3 0-.5.1-.8.1-2.5.1-4.9.2-7.4.3-.5 0-1 .1-1.4.2-1.1.3-2.1.7-3.2 1.1-.2.1-.3.4-.4.7 0 .1.2.3.3.5-.2.1-.3.2-.5.3v.1c-.2 2.1-.5 4.2-.7 6.3-.1 1.8-.1 3.6-.2 5.4 0 .6.1 1.1.1 1.7 0 1-.1 1.9-.1 2.9.2.4.4 1.1.5 2m43.5-72.9c-.2 0-.5.2-.7.1-.9-.1-1.8-.3-2.7-.4-.2 0-.4 0-.6 0 .1.2.3.4.4.5s.2.1.2.1c.1.1.1.1.2.2-.1 0-.2.1-.3.1-.6-.2-1.2-.4-1.8-.6-.2-.1-.5 0-.8 0v.5c0 .2-.1.4-.1.7-.2.5-.4.9.4.9.1 0 .2.1.3.2-.1.1-.2.1-.2.1-.5.1-.5.4-.5.8v.8c-.2 1.4-.4 2.8-.6 4.3-.1.9-.2 1.7-.3 2.6 0 .4-.1.7-.1 1.1 0 .1.2.2.3.3.5.1 1 0 1.5.2 1.3.3 2.7.6 3.9 1.1 1.4.5 2.7 1.3 4 2 2 1 4.2 1.7 6.2 2.8 1.4.7 2.6 1.8 3.8 2.8.3.2.5.4.9.1.8-.7 1.7-1.3 2.6-2 1.8-1.4 3.5-2.7 5.3-4.1.1-.1.3-.2.5-.3 0 .2 0 .5-.1.6-.7.7-1.4 1.4-2.1 2-1.9 1.4-3.8 2.7-5.7 4-.5.3-.4.4-.1.8 1.1 1.4 2.2 2.9 3.3 4.4.1.2.4.4.5.4.4 0 .8-.2 1.2-.3 1.7-.8 3.4-1.6 5.1-2.4.6-.3 1.3-.6 2-.8.2-.1.4.1.6.1-.2.1-.3.2-.5.3-.3.1-.6.3-.8.4-2.3 1-4.3 2.5-6.8 3-.8.1-.5.5-.3.9.6 1.5 1.2 3 1.8 4.5.3.9.3.9 1.2.5.2-.1.4-.1.6-.2 2.7-1.1 5.6-1.5 8.5-1.6.2 0 .3.1.5.2-.2.1-.3.2-.5.2-1.5.2-3 .3-4.5.6-1.6.4-3.2.9-4.7 1.5-.4.1-.8.4-.5 1 .2.4.1.9.2 1.4.1 1.1.3 2.2.4 3.3 0 .1.3.3.5.3.7-.1 1.3-.2 2-.3 2.2-.1 4.4-.2 6.6-.3.6 0 1.2-.1 1.8-.2.1 0 .2-.2.2-.3 0-.9.1-1.9 0-2.8-.2-1.6-.5-3.1-.8-4.6-.6-2.7-1.5-5.3-2.7-7.8-.9-1.8-2-3.6-3.1-5.3-1-1.5-2.1-3-3.3-4.4-1.3-1.5-2.8-2.8-4.3-4-1.3-1.1-2.6-2.1-3.9-3.1-1.4-1-2.8-2.1-4.2-3.1-1.2-.9-2.4-1.7-3.9-2.2-1.6-.6-1.5-.7-2 .9-.7 2.3-1.5 4.5-2.2 6.8 0 .1-.1.1-.1.2 0-.1-.1-.2 0-.3.1-.4.3-.9.4-1.3.6-2.1 1.3-4.1 1.9-6.2.1-.2-.1-.5-.1-.7-.1.2-.3.3-.4.5-.1.1-.1.2-.1.2 0-.1-.1-.1-.1-.2.3-.7-.3-.8-.7-.9-.9-.4-1.7-.5-2.6-.6m33.3 78.6c0-2.7-.1-5.4-.1-8.1 0-2.9-.1-5.8-.1-8.8-.1-2.4-.2-4.9-.3-7.3 0-1-.1-1.1-1.1-1-2.4.1-4.9.2-7.3.3-.8 0-1 .4-1.1 1-.1.8-.2 1.6-.3 2.4-.2 1.8-.5 3.7-.6 5.5-.1 2.6-.1 5.3-.2 7.9 0 2.9-.1 5.7-.1 8.6v6.7c0 .4.2.7.1 1.1-.1.6.1.8.8.8 1.7-.2 3.3-.4 5-.6 1-.1 2-.2 3-.3 1.3-.1 1.3-.2 1.2-1.5 0-.2.1-.5.1-.7.8.2.5-.4.6-.8.1-1.7.2-3.4.4-5.2m-10.1 22.6c-.8 0-1.6.2-2.3 0-1.1-.4-1.7.5-2.6.6 0 0-.1.2-.1.4v2c-.1 1.6.1 3.2-.2 4.9-.2 1.2 0 2.5.1 3.7 0 .3 0 1.2.8.6h.2c1.4 0 2.9-.1 4.3-.1h1.8c1.3-.1 2.6-.3 3.9-.2 1 0 1.9.4 2.9.4 1.8 0 3.5-.2 5.3-.3.1 0 .2-.2.3-.3.2-1.6.4-3.1.4-4.7 0-2.3-.1-4.6-.1-6.8 0-.2-.3-.4-.5-.5-.7-.3-1.3.1-2 .1-1.5.1-2.9.1-4.4.2-.6 0-1.3 0-1.9 0-1.3.1-2.6.2-3.9.3-.5-.2-1.2-.3-2-.3m-92.9 12.6c0 .9.1.9.8.6.3-.1.5-.4.8-.4 1.6-.2 3.2-.5 4.7-.6 2.8-.1 5.6-.1 8.4-.2.1 0 .3-.1.4-.1 1.4 0 2.7-.1 4.1-.1.4 0 .9.2 1.3.2.1 0 .4-.2.4-.4.1-.7.1-1.4.2-2.1.1-.9.1-1.8.1-2.6.1-2.1.3-4.2.4-6.4 0-.2-.2-.5-.3-.5-.4 0-.8.1-1.2.2s-.8.4-1.2.6c-1.3.5-2.7.6-4 .4-.7-.1-1.5-.2-2.2-.3-.9-.1-1.8-.2-2.6-.1-1.6.1-3.2.5-4.8.5-1.4 0-2.7-.2-4.1-.4-.7-.1-.7.3-.7.6-.1 3.2-.2 6.5-.3 9.7-.1.7-.2 1-.2 1.4m46.3-72.8c-1.4-1.3-3-2.3-4.7-3.1-.8-.4-1.5-.8-2.3-1.1-.1-.1-.2-.2-.2-.3.1 0 .2-.1.3-.1s.3 0 .4.1c.8.5 1.5.9 2.3 1.4.2.1.4.1.5.2-.1-.2-.1-.5-.3-.6-.9-.7-1.8-1.4-2.7-2.1-2-1.7-3.9-3.4-5.9-5.1-.6-.5-.9-.5-1.3.1-.5.7-1 1.5-1.5 2.2-.7 1.1-1.5 2.2-1.9 3.3-.6 1.6-.8 3.2-1.2 4.9-.2 1-.4 2-.4 3-.1 1.1 0 2.3 0 3.4 0 .5.1.8.7.7 1.3-.2 2.6-.4 4-.4 1.2 0 2.4.2 3.7.3h.3c-.1 0-.2.1-.3.1-1.1.1-2.3.2-3.4.3-.1 0-.3.1-.4.1.1 0 .3.1.4.1 1.4 0 2.8-.1 4.1-.1h6.1c.3 0 .9-.2.9-.4 0-1.8.9-3.2 1.8-4.6.3-.8.6-1.5 1-2.3m34.7-7.7c-.4-1.1-.9-2.1-1.3-3.2-.2-.5-.3-.6-.6-.2-.6.7-1.3 1.4-1.9 2.1-1 1-2 1.9-3 2.9-1.6 1.6-3.3 3.2-4.9 4.8-.4.4-.9.7-1.2 1.1-.2.2-.4.6-.4.8.1.6.4 1.2.7 1.7.5.9 1.4 1.6 1.1 2.8-.1.5-.3 1.4.9 1 0 0 .1.1.1.1 1.4.1 2.8.2 4.2.2 1.3 0 2.6-.2 3.9-.3.8-.1 1.6-.1 2.4-.1.9 0 1.9.1 2.8.1 1 0 1.8-.8 1.7-1.5-.3-1.3-.6-2.5-.7-3.8-.1-1.8-.5-3.6-.9-5.3-.5-2.3-1.6-4.3-2.6-6.4-.1-.2-.4-.3-.6-.5-.1 0-.1-.1-.2-.1.1-.1.2-.2.3-.2s.2.1.3.3c.7 1.2 1.6 2.3 2 3.5.7 1.9 1.2 3.9 1.8 5.8.4 1.3.6 2.7.8 4 .2 1 .3 2 .5 2.9 0 .2.1.3.2.5.1 0 .2-.1.2-.1.2-.2.4-.4.4-.6-.2-1-.5-2-.7-3-.3-1.6-.4-3.3-.7-4.9-.5-2.4-1.4-4.7-2.5-7-.6-1.2-1.3-2.4-1.9-3.5-.5-1-.8-1-1.5-.2-.2.2-.3.6-.4.9.3-.1.5-.1.8-.2h.5v.5c-.1.2-.3.3-.5.5-.3.4-.2.8.1 1.3.5.9.7 2 1.2 3 .5 1.1 1.1 2.1 1.6 3.1.3.5.2.9-.3 1.1-.1.1-.4-.1-.5-.1.1-.1.2-.2.2-.3.1-.3.2-.7.1-1-.4-.9-.9-1.6-1.5-2.5m-22.6 5.1c-1.1-.6-2.2 0-3.1.3-2 .8-3.7 2-5.1 3.6-.1.1 0 .2-.1.3.1 0 .2-.1.3-.1l.3-.3c-.1.2-.1.4-.2.5s-.3.1-.4.2c-.2.1-.5.2-.7.3-1.5 1-1.8 2.7-2.2 4.4 0 .1.2.4.4.4 1.1 0 2.2.1 3.3 0 1.9-.1 3.7-.2 5.6-.3 2.8-.1 5.6-.1 8.4-.2.6 0 1.2-.1 1.8-.2.2 0 .5-.3.5-.4-.2-1.2-.4-2.4-.9-3.6-.5-1.4-1.8-2.4-2.8-3.4-.1-.1-.2-.1-.2-.1-.3.5-.4-.1-.5-.2-.6-.4-1.2-.9-1.8-1.3-.1-.1-.3 0-.5.1-.1 0-.2.1-.2.1-.1-.2-.2-.3-.2-.5.1 0 .2-.1.3-.1.4.1.7.2 1.1.3.2 0 .4 0 .6.1-.1-.2-.2-.4-.4-.5s-.5-.3-.8-.3c-.9 0-1.8 0-2.7 0-.2 0-.3.1-.5.2l.4.4c.4.2.8.3 1.2.4.1 0 .2.1.2.1-.1 0-.2.1-.3.1s-.4-.1-.8-.3m31.3 61.8c1 .1 2.1.3 3.1.3 1.6 0 3.2-.1 4.8-.1 1.8-.1 3.7-.1 5.5-.1.7 0 1.4-.1 2.1-.2h.2c.3.3.5.1.5-.2.1-1.5.1-3 .1-4.5 0-.1-.3-.4-.4-.4-.4 0-.8.1-1.1.2v.2c.1.2.1.3.2.4-.2 0-.4 0-.6 0-1.1-.4-2.2-.6-3.4-.5-1 0-2.1 0-3.1 0-1.1 0-2.3.1-3.4 0-1.6-.2-3.1-.3-4.7-.1-.3 0-.4.1-.4.5.1 1 0 2 .1 2.9-.1.4-.6 1.2.5 1.6m-1.4-35.6c0 .5-.1 1.1-.1 1.6s.3.7.8.6c.4-.1.8-.1 1.2-.1.1 0 .3.1.4.2-.1.1-.2.2-.2.2-.5.1-1.1.4-1.5.2-.7-.2-.7.1-.7.5v2c0 .4 0 .7.5.6.5 0 .9-.2 1.4-.2.2 0 .3.1.5.1-.1.1-.1.3-.3.3-.3.1-.7.3-1.1.3-.6.1-1.3-.3-1.1.9.1.5-.1 1.1-.1 1.7 0 .8.2.9.9.7.3-.1.6-.1.9-.1h.3c-.1.1-.1.2-.2.2-.4.2-.9.4-1.3.4s-.6.1-.6.6v2.1c0 .4.1.5.4.4.7-.1 1.5-.2 2.2-.3.1 0 .3-.2.3-.3.1-1.3.2-2.7.3-4 .1-2.7.1-5.4.2-8.1 0-1.4.1-2.7.1-4.1 0-.1 0-.1 0-.2.2-1.6.4-3.1.6-4.7.1-1.2-.1-2.4.6-3.5 0-.1-.2-.3-.2-.3-.6.1-.8-.2-1.1-.6-.1-.3-.4-.5-.6-.7-.9-.5-1.4-1.6-.9-2.4.2-.3.5-.5.7-.8.1-.2.1-.4.2-.6-.1 0-.3-.1-.4-.1-1.1-.2-1.5.7-2 1.4-.4.5 0 .9.3 1.3.6.8.6 1.6.6 2.5-.1.7.2.7.7.5.1 0 .2-.1.3-.1.2 0 .4.1.5.1-.1.2-.2.4-.4.5-.3.2-.7.2-1 .3-.2.1-.3.3-.5.5.2 0 .5.1.7.1h1c-.3.2-.5.4-.8.6-.1.1-.2.1-.4.1-.5-.1-.6.3-.7.7 0 .4-.1.9 0 1.4 0 .4.2.7.7.4.3-.2.5-.3.8-.4h.3c0 .1-.1.2-.1.2-.4.3-.7.8-1.1.8-.5.1-.7.3-.7.7s.1.7.5.2c0 0 .1.1.1.1.2.6.6.3 1 .2.1 0 .3.1.4.1-.1.1-.1.4-.2.4-.4.1-.7.1-1.1.1-.4-.1-.7-.1-.7.5 0 .9-.2 1.7-.3 2.6 0 .4 0 .6.5.4s1.1-.3 1.7-.4c.1 0 .3 0 .4.1-.1.1-.1.3-.3.4-.5.2-1.1.4-1.6.5-.2.4-.5.5-.7.7m-73.4 31.2c-1.8-.2-3.5.3-5.2.4-1.8.2-3.7.5-5.5.8-.5.1-1.2-.1-1.3.7-.1 1-.1 2-.2 2.9 0 .1.2.2.3.2 1.3-.7 2.7-.7 4.1-.4 1.2.3 2.4.3 3.6.4.5 0 1-.1 1.5-.1 1.8-.1 3.6-.1 5.4-.1h2.2c.7 0 1.5-.8 1.5-1.5 0-.6.2-1.3.3-1.9 0-.2 0-.3 0-.5-.2 0-.4 0-.6.1-.3.1-.6.3-.9.4-.2.1-.4-.1-.6-.1.1-.2.2-.3.3-.5s.3-.4.3-.7c0-.1-.3-.2-.5-.3-.2 0-.3 0-.5 0-1.5.2-2.8.2-4.2.2m53.5-10.9c0 1 .2 1.9.1 2.9-.1 1.6-.3 3.3-.4 4.9-.1.9.1 1.9 0 2.8-.1.6.2.8.7.9.3 0 .8-.1.9-.3.2-.4 0-.6-.5-.6 0 0-.1-.1-.2-.2 0-.1 0-.2.1-.3h.2c.1.1.3.2.4.2 0-.2.1-.4.1-.5 0-.6-.1-1.2-.1-1.8 0-2.6 0-5.1 0-7.7-.1-1.9-.3-3.7-.4-5.6-.1-1.5-.1-3-.1-4.6 0-.6 0-1.1 0-1.7 0-2-.1-4-.1-6 0-3 .1-6 .1-9.1 0-1.5-.1-3-.1-4.6 0-.2.1-.4.1-.6 0-.6 0-1.2-.1-1.8 0-.1-.3-.2-.5-.3-.1.1-.2.3-.2.4-.1.5 0 1-.1 1.5-.2 1.7-.5 3.5-.4 5.2.1 5.7-.3 11.5.2 17.2.2 2.1.2 4.1.3 6.2-.3 1.3-.1 2.3 0 3.5m-23.7-29.2c0-.6 0-1.3 0-1.9 0-.8 0-1.6.6-2.3.1-.1 0-.4 0-.7-.3.1-.6.1-.7.2s-.1.4-.2.6c-.1 1-.2 2-.3 2.9-.2 2.1-.4 4.1-.6 6.2-.1 1.8 0 3.6 0 5.4 0 .1 0 .2-.1.3 0-.1-.1-.2-.1-.2-.1-1.1-.1-2.3-.1-3.4 0-.1 0-.2 0-.4 0-.1-.1-.2-.2-.2 0 .1-.1.1-.1.2-.1.6-.2 1.3-.3 1.9-.1 1.8-.2 3.5-.3 5.3-.1 1.5-.1 3-.1 4.5-.1 1.9-.2 3.8-.3 5.7-.1 1.5-.2 3-.3 4.5-.1 2.3-.1 4.6-.2 6.8 0 .4-.1.7-.1 1.1 0 .1.1.3.1.3.5-.1 1-.1 1.4-.3.1 0 .1-.5 0-.8 0-.5-.2-1-.2-1.5.1-1.9.1-3.9.3-5.8.1-.8.3-1.7.4-2.5.1-.9.4-1.8.4-2.7.1-2.1.2-4.1.3-6.2.1-2.7.1-5.4.1-8.1 0-.3-.1-.7-.1-1 .1-1.1.2-2.2.3-3.4.3-1.4.4-2.9.4-4.5m14.2-51.1c-.5 0-1 .1-1.5.1-1.7.1-3.3.2-5 .3-.7 0-1 .4-.8 1 .1.4-.1 1.2.9 1 1.3-.2 2.6-.3 3.9-.3h4.6c.6 0 .8-.2.9-.8.1-.9.4-1.7.5-2.6.1-.3.1-.7-.1-.9s-.6-.1-.9-.1c-.1 0-.3 0-.4 0-.9-.1-1.8-.3-2.7-.3-2.3 0-4.5.1-6.8.1-.3 0-.4 0-.4.4.1.5.1 1.1.2 1.6.1.3.1.6.7.6 1.5-.2 3-.3 4.5-.4h1.3 3.5s.1.1.1.1c-.1 0-.1 0-.2 0-.8.2-1.5.2-2.3.2m28.9 38c-.2.1-.6.2-.6.3 0 .4.1.8.2 1.1 0 0 .5-.1.8-.1.1 0 .3-.1.4-.1 0 .1-.1.3-.1.4s-.1.3-.2.4c.1 0 .3.1.4.1.1-.1.2-.3.3-.4.1-.2.2-.5.4-.7 0 .2 0 .4.1.6 0 .1.2.2.3.2h.7c-.1-.1-.1-.4-.3-.4-.7-.3-.6-.8-.6-1.4.2-2.7-.3-5.4-.8-8-.6-3-1.5-5.8-3.3-8.3-.3-.4-.5-1-.8-1.1s-.8.3-1.2.5c-.9.4-.9.4-.4 1.1.1.1.4.2.6.2.3-.1.7-.2 1-.3h.3c-.1.1-.1.2-.2.2-.2.2-.5.4-.7.5-.8.4-.2.9-.1 1.3.1.3.5.6.9.3.1-.1.3-.2.5-.2.3-.1.6-.1.9-.2-.2.2-.4.3-.6.5-.1.1-.3.2-.4.3-.9.4-.3 1-.2 1.4.2.5.6.2.9.1s.7-.2 1-.2c-.3.3-.6.6-.9.8-.5.3-.7.8-.3 1.3.3.5.6 0 .9-.1.2 0 .3-.2.5-.2.2-.1.3-.1.5-.1-.1.2-.2.3-.3.5-.2.2-.4.5-.7.6-.7.3-.5.7-.3 1.2.2.6.6.1.9.1.2 0 .4-.1.6-.2.1 0 .2.1.3.1-.1.1-.1.2-.2.3-.3.2-.7.3-1 .6-.1.1-.3.3-.3.5 0 .4-.1.9.1 1.1s.7 0 1.1 0c.2 0 .4.1.6.2-.2.1-.4.3-.6.3-.8.2-1.1.6-1 1.4.1 1.1 0 1.1 1 .7h.4c-.1.1-.1.2-.2.3-.2.1-.3.3-.5.4-.5.3-.7.7-.3 1.4.1.1.6 0 .9 0 .2 0 .4-.1.6-.1.1 0 .2.1.3.2-.1.1-.1.2-.2.3-.4-.1-.7.1-1.1.3m14.2-2.8c-.1-.6-.7-.4-1-.3-.8.1-1.5.3-2.2.4-1.9.1-3.7.2-5.6.3-.6 0-1.3.1-1.9.2-.2 0-.4.3-.5.5-.2.5-.5 1-.6 1.6-.1.2-.1.6.1.7.5.4 1.1.5 1.7.5 1.1-.1 2.3-.1 3.4-.1.4 0 .7.3 1.1.3h5.2c.2 0 .5-.1.5-.2-.1-1.3-.2-2.5-.2-3.9m-48.5-30.9c-.2 0-.4 0-.6 0-1.1 0-1.1 0-.8 1 .2.6.4.8 1 .7 1.3-.1 2.6 0 3.8 0 .1 0 .2.1.3.1-.1 0-.2 0-.3 0-1.3.1-2.6.3-3.9.4-.1 0-.3 0-.4.1s-.2.2-.3.3c.1.1.2.2.3.2h2.7c1.5 0 3-.1 4.6-.1.4 0 .6-.2.7-.6.3-1.2.6-2.3.8-3.5.1-.3 0-.5-.4-.5-1.6.1-3.1.1-4.7.2-1.3 0-2.6.1-3.9.1-.4 0-.7.1-.6.6 0 .5.1.9.7.9.8 0 1.5-.1 2.3-.1h5.3c.1 0 .2 0 .3.1-.1 0-.2.1-.2.1-1 .1-2 .1-3.1.1-.5 0-1.1.1-1.6.1-.6-.1-1.3-.2-2-.2m34.6 77.7c.1.4.3.5.7.3.2-.1.5-.1.8-.1-.2.2-.3.4-.5.6-.1.1-.1.1-.2.1-.9.1-.8.7-.8 1.3 0 .5.2.6.6.8.6.3 1 0 1.3-.3.4-.3.8-.7 1-1.2s0-1.1 0-1.6c0-.8.1-1.6.1-2.4 0-1.1 0-2.1 0-3.2 0-.8.1-1.7.1-2.5 0-.1-.3-.3-.4-.3-.8.1-1.6.3-2.4.5-.2.1-.4 0-.3.5.1.8 0 1.6.1 2.4 0 .4.1.8.2 1.2.3-.1.6-.1 1-.2.1 0 .2-.1.3-.1h.6c-.1.2-.2.3-.4.4-.3.2-.7.6-1.1.6-.5.1-.6.4-.6.8-.2.9-.2 1.7-.1 2.4m-48.4-70.7c-1.7 1.1-3.4 2.1-5 3.3-1 .7-1.8 1.5-2.8 2.3-.9.8-1.9 1.5-2.6 2.4-1.2 1.4-2.2 3-3.2 4.6-.8 1.3-1.6 2.6-2.1 4-.9 2.3-1.6 4.6-2.4 7-.1.3-.2.6-.3.9v.3c.1 0 .2 0 .2-.1.2-.1.3-.3.4-.5.6-1.7 1.1-3.5 1.7-5.2.3-1 .7-2 1.1-3 0-.1.2-.2.2-.2.2.2.3.2.4-.2.2-.5.4-1.1.8-1.6 1.5-2.2 3-4.4 4.8-6.4 1.4-1.6 3-3.1 4.6-4.5 1.1-.9 2.4-1.5 3.6-2.1 1.8-.9 3.5-1.8 5.3-2.6.9-.4 1.9-.5 2.8-.7 1.1-.3 2.2-.5 3.4-.8.2 0 .3-.2.5-.2-.2-.1-.4-.2-.6-.2-1.6.3-3.1.6-4.7 1.1-1.9.7-4 1.6-6.1 2.4m-14.3 20.7c.4 0 1.1-.7 1.1-1.1 0-.1-.2-.2-.3-.2-.4-.1-.8-.2-1.2-.3-.2 0-.3-.2-.4-.2.2-.1.4-.1.6-.2.1 0 .2.1.3.1.6 0 1.3.2 1.6-.5.2-.3.4-.7.5-1.1 0-.1-.1-.5-.2-.5-.6-.1-1.2-.1-1.8-.2-.1 0-.2.1-.2.1-.6 1.4-1.3 2.8-1.9 4.3-.9 2.4-1.7 4.8-1.5 7.4 0 .4 0 .6.5.3.6-.3 1 0 1.2.5.1.4.3.7.4 1.1.1.1.3.3.3.3.1 0 .3-.2.3-.3.1-.6.2-1.3.3-1.9 0-.1-.1-.1-.1-.2-.1 0-.1.1-.2.2s-.1.3-.1.4 0 .2-.1.3c0-.1 0-.2-.1-.2-.1-.1-.4-.4-.4-.4-.6.5-.2-.2-.3-.2.4-.7-.2-.7-.6-.8-.1 0-.3-.1-.4-.1.2-.1.3-.1.5-.1.3-.1.6 0 .8-.2.1-.1.2-.5.1-.6-.2-.1-.5-.2-.8-.2-.2 0-.3-.1-.5-.1.2-.1.3-.1.5-.2h.5c.2-.1.5-.2.5-.4.3-.8.3-.9-.6-1.1-.1 0-.1 0-.2-.1-.2-.1-.3-.2-.4-.3.2 0 .3.1.5.1.4 0 .9.2 1.1 0 .3-.2.4-.8.5-1.2-.3 0-.6 0-.8-.1-.3-.1-.5-.2-.7-.3.3 0 .6-.2.8-.1.7.3 1-.1 1.3-.6.1-.2.3-.6-.2-.6-.4 0-.7-.2-1.1-.3-.1 0-.2-.1-.3-.2.1 0 .2-.1.3-.1s.4.1.9.1m7.8-13.8c.1.1.2.1.2.2.2.3.3.6.5.9-.3-.2-.6-.4-.9-.6-.6-.5-.8-.5-1.4 0-.3.3-.6.5-.8.8-.1.1-.1.4-.1.6.8-.1 1 .8 1.5 1.1.1.1.4.1.5 0 1.4-1.2 2.7-2.6 4.1-3.8 1.6-1.4 3.2-2.8 5.2-3.5.8-.3.7-.4.2-1-.4-.5-.7-.7-1.3-.6-.2.1-.4.2-.6.2-.9.3-.9.7-.3 1.3.1.1.2.2.3.3 0 .1.1.2.1.2-.1.1-.2.1-.3.1-.2-.1-.3-.2-.4-.3-.5-.6-1.1-.7-1.7-.2-.3.2-.7.4-1 .6-.1.1-.1.4 0 .5.2.2.5.3.8.4.1.1.2.2.3.3-.1.1-.3.2-.4.1-.3-.1-.5-.4-.8-.5s-.7-.4-.9-.3c-.4.2-.8.5-1.2.8-.1.1 0 .4 0 .4.6.1.6.6.8 1 .1.2 0 .3 0 .5-.1-.1-.3-.2-.4-.3-1.2-1.3-.8-1.4-2.1-.4-.3.6-.6.9.1 1.2m49.5 25.4c-2.8 0-5.6.1-8.3.1-.6 0-1.1-.1-1.7-.1-.8 0-1.5 0-2.3 0-.2 0-.4-.2-.5-.3s-.1-.2-.1-.4c-.1.1-.1.3-.2.4-.1.2-.3.5-.4.5-.3-.2-.6-.2-.8.2-.1.3-.1.6-.1.9 0 .1.1.2.2.2 1.1.1 2.2.2 3.3.1.9 0 1.8-.3 2.7-.3 1.9 0 3.7.1 5.6.1.7 0 1.4.2 2.2.3.2 0 .4.1.6.1-.1-.2-.2-.4-.2-.6 0-.1-.1-.2-.1-.3.1 0 .2 0 .3.1.4.7 1 .5 1.6.3.2-.1.5-.2.7-.3s.4-.4.6-.6c-.3-.2-.6-.5-.9-.5-.8 0-1.4.1-2.2.1m2.8 16.7c0 2.2.1 4.4.1 6.6 0 3.2-.1 6.4.4 9.5 0 .2.1.4.1.5.1-.2.3-.4.3-.6 0-1.2-.1-2.5-.1-3.7-.1-2.9-.1-5.7-.1-8.6 0-1.1.2-2.1.3-3.2.1-2.5.2-4.9.3-7.4 0-1.8 0-3.6 0-5.4 0-.6-.2-1.2-.3-1.8 0-.2-.2-.3-.3-.4-.1.2-.3.4-.3.6.2.7.3 1.5.2 2.3-.2 1.9-.4 3.8-.4 5.7-.2 1.9-.2 3.8-.2 5.9m-68.6-17.1c.5-.1 1-.2 1.5-.2 1.4 0 2.7.1 4.1 0 .2 0 .3-.3.5-.5-.2 0-.4 0-.6 0-.1 0-.2 0-.2 0 .1-.1.1-.2.2-.3 0-.1 0-.3.1-.4-.1 0-.2 0-.2 0-.7.5-1.5.7-2.5.5-.8-.1-1.6 0-2.3 0-.1 0-.2 0-.3-.1.1 0 .2-.1.3-.1.8-.1 1.7-.2 2.5-.3.5-.1.9-.3 1.4-.4.1 0 .2-.2.3-.2-.1-.1-.2-.1-.4-.2-.5-.1-1.1 0-1.6-.2-.4-.1-.4 0-.3.2.2.5-.1.4-.4.4-.2 0-.4-.1-.6-.1-2-.1-4-.3-5.9-.3-1.1 0-2.2.3-3.3.4-1 0-2 0-3-.1-.5 0-.6.2-.5.6 0 .4.2.5.6.3.2-.1.4-.1.6 0 2 .7 4.1.5 6.1.8 1.1.3 2.4.2 3.9.2m60.6 55.5c.7.1 1.4.3 2.1.3h6.2c.1 0 .2-.1.3-.1-.2-.5.1-.3.3-.2h.4c0-.1 0-.3 0-.4-.5-.3-.4-.7-.3-1.1 0-.5-.2-.6-.6-.6-.8 0-1.6.1-2.4 0-.7-.1-1.1.1-1.5.6-.1.2-.4.2-.6.4-.1-.2-.2-.5-.4-.7-.1-.1-.2-.3-.3-.3-1.1-.1-2.2-.1-2.9 1v.1c-.3.3-.6.4-1 .1s-.2-.6 0-.9c.1-.1.1-.2.1-.3-.1 0-.3 0-.4.1-.7.6-1.4 1.2-2 1.8-.1.1-.1.3-.2.4.1 0 .3.1.4.1.7-.2 1.7-.2 2.8-.3m15.1-56.4c.6 0 1.3.1 1.9.1h2.8c1.1 0 2.2-.1 3.2-.1.5 0 1.1.1 1.5-.4.5.5 1 0 1.5 0 .4 0 .8-.2 1.2-.3.3-.1.6-.3.9-.4.2-.1.4-.3.6-.4-.2-.1-.4-.2-.6-.2-.3 0-.6-.1-.9 0-.7.4-1.3.3-2 .3-3 0-6 .2-9.1.3-1.3 0-2.6 0-3.9 0-.4 0-.8-.1-.7.5 0 .4 0 .8.6.5 0 0 .1.1.1.1.2.1.4.2.5.2.8-.1 1.6-.2 2.4-.2m-30-49.6c1.2 0 1.3 0 1.5-.9 0-.1 0-.2 0-.3s-.2-.3-.2-.3c-.7 0-1.4-.2-2 .1-.8.4-1.6.2-2.4.2-1.1-.1-2.2-.4-3.4-.3-2 .2-4.1.3-6.1.4-.5 0-.6.4-.6.6s.2.7.4.7c.8.2 1.6.4 2.4.3 1.2 0 2.3-.3 3.5-.4 2.1 0 4.4 0 6.9-.1m39.3 94.9c.1-.2.3-.3.3-.5 0-.1-.1-.3-.2-.3-1 .1-2.1-.3-3.1.4-.5.4-1 .4-1.6.1-.2-.1-.5-.2-.7-.3-1.5-.5-2.9-.1-4.4 0-.2 0-.4 0-.5 0-.4-.3-.8-.6-1.2-.9-.1-.1-.4-.2-.4-.1-.2.3-.4.6-.4.9s-.3.9.4 1c.5.1 1.1.2 1.6.3 2.2.6 4.4 1.1 6.6 1 .6 0 1.2.2 1.7-.5 0 0 .1-.1.2-.1.9.4 1.2-.4 1.7-1m-31.3-74.4c.2 0 .6 0 .6-.1.2-.4.3-.8.4-1.2s.1-.4.4-.2c.1.1.2.2.1.3-.1.4-.1.9-.3 1.2-.3.6.1.8.5 1 .5.2.7 0 .8-.4 0-.1.1-.3.2-.4.2-.2.4-.4.6-.6.3.3.5.6.8.9-.1 0-.1.1-.2.1-.6-.2-.6.4-1 .6.2.1.3.3.5.4.5.3.7.2.6-.4 0-.1 0-.2.1-.3 0 .1.1.2.1.4v.2c0 .1.1.3.1.4.1-.1.3-.2.4-.3.1-.3.2-.5.3-.8.1-.6.4 0 .6-.1.1.2.2.3.2.5s-.1.4-.2.5c-.3.6.3 1.7 1 1.7.1 0 .3-.2.4-.3.1-.3.2-.6.3-.9.1-.1.2-.2.4-.3.1.1.2.3.2.4-.1.3-.3.7-.5 1-.1.2-.2.5-.1.5.6.4 1.1.8 1.7 1.1 0 0 .4-.6.6-.9 0-.1.1-.1.1-.2.4-.7.3-1-.3-1.4-2.7-1.9-5.6-3.3-8.7-4.5-1-.4-1-.3-1.4.7-.3.9-.3.9.7 1.4m16.1 81.6c0-.5 0-.9 0-1.3 0-.2-.2-.4-.3-.4-.9-.1-1.8-.3-2.7-.3-2 0-4 0-6 0-.2 0-.6 0-.7.2-.2.3-.4.7-.5 1.1 0 0 .2.1.2.1.7-.1 1 .3.9 1 0 .1 0 .2.1.3.1 0 .3 0 .4-.1.4-.4.8-.8 1.2-1.2.2-.2.3-.8.7-.5s.6.8.9 1.1c0 0-.1 0-.1.1-.2.1-.4.3-.5.4s-.1.1-.2.2c.1 0 .2 0 .3.1 1.3.3 2-.5 2.7-1.3.1-.1.1-.3.1-.3-.1-.1-.3-.1-.4-.1-.3.1-.6.3-.8.4-.1 0-.1 0-.2 0 0-.1 0-.1.1-.1.7-.3 1.3-.6 2-.8.1 0 .3.1.4.1.9.9.9.7.1 1.5-.1.1-.2.2-.3.3s-.1.2-.1.3c.1 0 .2.1.3 0 .8 0 1.5-.1 2.3-.2-.1 0 0-.3.1-.6m-26.1-101.7c-.2 0-.4-.1-.6 0-.3.1-.7 0-.7.5 0 .1-.1.3-.1.4-.1-.2-.1-.3-.2-.5s-.3-.5-.4-.5c-.8 0-1.6.1-2.4.1-.3 0-.6 0-.4.4v.2c-.1 0-.2-.1-.2-.1-.3-.3-.8-.6-1-.3-.4.6-.8.4-1.3.3-1.1-.1-2.1-.2-3.2-.4-.5-.1-.6.3-.6.5 0 .3.3.7.4.8.9.1 1.9.2 2.8.2 1 0 2-.1 3-.1h3.3 3.4c1.1 0 1.2 0 1-1.1 0-.2-.4-.4-.5-.4-.3.2-.5.4-.7.7-.1.1-.1.3-.1.4-.1-.2-.2-.4-.2-.5.3-.8-.3-.6-.7-.6 0 0-.2 0-.6 0m-46 95.2c-2 .1-4 .2-5.9.3 0 0 0 0-.1 0-1 .3-1.8.1-2.5-.7-.1-.1-.4 0-.5 0-.1.5-.2 1-.3 1.5 0 0 .1.2.2.2h1.1c2 .1 3.9.2 5.9.3 1.3 0 2.6.1 3.9 0 .5 0 1.1-.4 1.5-.7.2-.1.5-.6-.2-.7-1-.1-2-.1-3.1-.2m37-43.9c-1.3 0-2.7 0-4 0-.2 0-.4.1-.6.2v.2c.2.1.5.2.7.2.6 0 1.3-.1 1.9-.1.7 0 1.4.1 2.1.1h9.5.8c1.6 0 3.3.1 4.9.1.4 0 .4-.5.4-.9.1-.4-.2-.4-.5-.4-.9.1-1.8.2-2.7.3-1.6.1-3.1.1-4.7.1-2.5.1-5.1.2-7.8.2m-19.9 55.3c1.2 0 2.5-.1 3.7-.2.8-.1 1.6-.2 2.3-.4.4-.1.6-.6 1-.7.6-.1.2-.5.3-.7-.2-.1-.5-.2-.7-.2-.4.2-.7.5-1.1.8-.3.3-.8.3-.8-.1 0-.9-.6-.8-1.1-.7-.7 0-1.5 0-2.2.2-.6.2-1.1.7-1.7 1.1-.4.2-.8.4-1.2.6-.1 0-.1.2-.2.3 0 0 .1.1.1.1.6 0 1 0 1.6-.1m2.1-4.4c-.3.2-.7.5-1 .7-.1.1-.2.2-.2.3.1 0 .3.1.4.1.5-.1 1-.3 1.3-.5.7-.5 1.5-1 2.4-.9.2 0 .4.1.6.2-.2.2-.4.5-.6.7-.1.1-.3 0-.3 0-.2.1-.4.3-.6.4.2 0 .4.1.6.1s.5-.1.6-.2c1.2-1 2.5-2.1 3.7-3.1.1-.1.1-.2.2-.3-.1 0-.2-.1-.3-.1-.8 0-1.7.1-2.5.2-.4 0-.8.2-1.2.4-1.1.6-2 1.3-3.1 2m-4.9-.6c.6-.4 1.2-.7 1.8-1.1.2-.1.3-.3.4-.5-.1 0-.3-.1-.4-.1-.7 0-1.4.1-2.1.1-1.2 0-2.1.8-2.3 2 0 .1-.1.3-.2.3-.9-.1-.9.6-1.3 1.1-.2.3-.2.6.3.5.4-.1.9-.2 1.3-.5.8-.5 1.6-1.2 2.5-1.8m3.7.2c.7-.5 1.5-1 2.2-1.5.1-.1.1-.2.2-.3 0 0-.1-.1-.2-.1-.8 0-1.7-.1-2.3.2-1.5.8-2.8 1.9-4.2 2.9-.1.1 0 .4 0 .6.9-.3 1.9.1 2.7-.6.5-.4 1-.7 1.6-1.2m37.5-.7c-.5 0-.5-.4-.5-.8 0-.3-.1-.6-.2-.8-.3-.2-.7-.2-1-.4-.4-.2-.3 0-.3.2 0 1.1.1 2.1.2 3.2 0 .3.2.6.3 1 0 .1.1.2.2.4.1-.1.2-.2.3-.3.2-.4.3-.8.6-1.2.8-.8 1.6-1.6 2.4-2.4 0 0 0-.3-.1-.3-.4 0-.8-.1-1.2.1-.1 0-.1.5-.2.8-.2.2-.2.3-.5.5m-45.6-50.8h1.2c1.2 0 1 0 1-1-.1-2.7 0-5.5.8-8.1.1-.2 0-.4 0-.6-.1.2-.3.3-.4.5-.2.9-.4 1.8-.6 2.7-.3 1.4-.6 2.9-1 4.3-.2.7.1 1.7-1.1 1.9.1.1.1.2.1.3m-6.2.5c-.1 0-.2-.1-.3-.1-2.4-.1-4.7-.2-7.1-.3-.7 0-1.4-.2-2.1-.3-.4-.1-.8-.1-1.1-.1-.1 0-.2.2-.3.4 0 0 .2.2.2.2.6-.2 1 .1 1.3.6.1.2.5.3.6.3 1.1-.8 2.3-.2 3.4-.3.7-.1 1.5.1 2.3.3.9.2 1.8.7 2.6-.2.1-.4.3-.4.5-.5m-10.1 43.7c-.3-.1-.6-.1-.9-.1-.2 0-.4-.1-.5 0-.1 0-.1.3-.1.4.2.1.4.2.5.2 1.3 0 2.7-.1 4-.1.1 0 .2-.1.3-.1 1-.2 2.1-.3 3.1-.5.7-.1 1.4-.4 2.1-.6.1 0 .2-.2.3-.3-.1 0-.3-.1-.4-.1-.4 0-.7.1-1.1.1-1 .1-2 .5-2.9.4-1.3-.1-2.4.5-3.6.6-.2-.1-.4 0-.8.1m69.6-67c.2.4.4.7.7 1.1s.6 1 1.1.1c0-.1.2-.2.2-.3 0-.3.1-.6 0-.8-1.3-1.5-2.8-2.9-4.5-4-.1-.1-.3-.1-.4-.2.1.1.1.3.2.4 1 1.1 2.1 2.1 2.7 3.7m-7.2 78.2c.6 0 1.2.1 1.7.1.1 0 .4-.1.4-.2.1-.8.7-1.2 1.2-1.7.1-.1.1-.3.2-.4-.2.1-.4.1-.5.2-.5.5-1.1 1-1.6 1.4-.1.1-.4.1-.6.1 0-.3-.1-.6 0-.8 0-.2.3-.3.4-.5.1-.1.2-.2.2-.3-.1 0-.2-.1-.4-.1-1.2-.1-1.9.7-2.5 1.6-.3.5-.2.7.4.7.4-.2.8-.2 1.1-.1m-28.9-9.8v1.6c0 1.1 0 1.1 1.1 1.1.5 0 .8-.2.8-.7-.1-.7-.2-1.5-.3-2.2 0-.4-.1-.7-.6-.6-.4 0-1.1-.2-1 .8m54.6-41.4c1.5.1 3 .3 4.4.4.2 0 .3 0 .5-.1-.1-.2-.1-.4-.2-.6s-.4-.3 0-.5c.1 0 0-.2 0-.4-.1 0-.3 0-.4 0-.3.1-.6.2-.9.2-.6.1-1.1.2-1.7.2-1 0-1.9 0-2.9.1-.3 0-.7 0-1 0-.2 0-.3.2-.5.3.2.1.4.2.6.2.7.2 1.4.2 2.1.2m-66.5-24.8c.2.1.5.2.7.4.3.3.6.3.9-.1s.6-.7.9-1.1c.1-.1.1-.3.1-.4-.5-.4-1-.8-1.5-1.1-.1-.1-.5-.1-.6 0-.3.2-.4.6-.6.9-.8.6-.7 1 .1 1.4m4.6-1.9c1.1-1 2.2-2.1 3.3-3 1.9-1.5 3.7-3 6-3.9.1 0 .1-.2.2-.3-.1 0-.2 0-.3 0-.9.4-2 .7-2.8 1.3-2.4 1.7-4.6 3.5-6.6 5.6-.2.2-.3.5-.5.7.2-.1.4-.2.7-.4m59.7 68.5c-1.3-.2-2.6-.3-3.8-.7-1.3-.4-1.7-.2-1.6-1.9 0-.2 0-.4 0-.6 0-.1-.1-.3-.2-.4-.2.1-.5.2-.5.4 0 .5 0 1 .1 1.4s-.3 1 .4 1.2c.2 1 .8.6 1.4.5.5 0 1.1.1 1.7.1.9.1 1.7.1 2.5 0m-22.3 5.9c.4 0 .8.1 1 0 .2-.2.3-.4.6-.1 0-.1.1-.2.1-.2.5-.6 1.1-1.1 1.6-1.7l.3-.3c-.2-.1-.4-.2-.5-.2-1.2-.3-2 .2-2.6 1.2-.1.4-.3.8-.5 1.3m-27.2-61.2 1.8 1.5.6.3c-.1-.2-.1-.5-.3-.6-1.3-1.4-2.7-2.7-4-4-.3-.3-.7-.5-1.1-.7-.1-.1-.3 0-.4 0 0 .1.1.2.1.3.3.3.6.6.8.9.8.7 1.6 1.5 2.5 2.3m39-15.1c-.1-.2-.2-.3-.4-.5-.5-.7-.5-.7-1.1-.1-.2.2-.4.4-.5.7-.1.2-.1.6 0 .8.7 1.1.4 1 1.6.5.4-.1.7-.3 1.1-.4-.2-.2-.4-.6-.7-1m-32-8.2c.2-.1.6-.1.6-.2 0-.4 0-.8-.2-1.1-.1-.2-.5-.1-.8-.1.1.4-.1.3-.4.2-.2-.1-.4-.1-.6-.1v.7.4c-1 .4-1.9.9-2.9 1.3-.2.1-.3.2-.5.3.2 0 .5.1.7 0 1.4-.4 2.7-.9 4.1-1.4m-2.4-1.1c-1.1.3-2.1.6-3.2.8-.8.1-.6.4-.2.8.2.2.2.6.3 1 .3-.2.5-.6.8-.7.8-.3 1.7-.6 2.5-.9.2-.1.3-.4.4-.7-.1-.1-.3-.2-.6-.3m-34.1 38c1.1 0 2.2.1 3.3.1.1 0 .2-.1.3-.2-.1-.1-.2-.2-.3-.2-.1-.1-.2-.1-.4-.1-.9-.1-1.9-.1-2.8-.1-1.9-.1-3.7.3-5.6-.3-.1 0-.3.2-.4.3.1.1.2.2.3.2.2.1.5.1.7.2 1.7 0 3.2.1 4.9.1m28.3-36.2c-.4.1-.7.2-1.1.4-.1 0-.2.2-.2.3.2.4.5.7.7 1s.5.4.8.1c.5-.4 1.6-.3 1.6-1.3 0-.9-.7-1.2-1.5-.8.1.1-.1.1-.3.3m35 7c.5.5 1.1 1 1.6 1.6.3.3.6.5 1 .4-.1-.3-.2-.8-.4-1-1.4-1.1-2.9-2.2-4.4-3.3-.3-.2-.6-.4-1-.6-.1-.1-.3 0-.5.1.1.1.2.2.3.2 1.1.9 2.2 1.7 3.4 2.6m-28.1-16.9c0 .2.1.4.1.6.1.2.2.3.3.5.1-.2.3-.4.3-.6-.2-1.5-.4-3-.6-4.5-.1-.7-.6-1.4-.2-2.2 0-.1 0-.2-.1-.2s-.3-.1-.4 0-.1.2-.1.4c.1 1.3.3 2.6.4 3.9.1.6.2 1.3.3 2.1m-6.4 86h.2c0-.3 0-.6 0-.9 0-2.2 0-4.4 0-6.5 0-.3-.1-.7-.1-1 0-.1-.1-.1-.2-.2 0 .1-.1.1-.1.2-.1.6-.1 1.1-.1 1.7 0 2.3-.2 4.5.3 6.7m9.6-92c-.1.2-.2.5-.3.7s-.2.3-.4.4c0-.2 0-.4 0-.6 0-.3.1-.6.1-.8-.2.2-.5.4-.7.6-.1.1 0 .3-.1.4-.2.2-.4.3-.6.5-.1.1-.2.1-.3.2.1.1.3.2.4.2h1.8c.7.1 1.1-.2 1.3-.9.1-.2.3-.4.4-.7 0-.1 0-.3-.1-.5-.4.2-.9.3-1.5.5m11.6 40.8c.4.6.8 1.2 1.2 1.8.1.1.3.2.4.3 0-.1 0-.3-.1-.4-.3-.7-.6-1.5-1-2.1-.5-.8-1.2-1.6-2.3-1.8-.2 0-.4.1-.6.2.1.1.2.3.3.4.7.4 1.4 1 2.1 1.6m-24.4 61.4c0 .3.1.5.1.8.3-.1.5-.2.8-.4.5-.4 1-.8 1.5-1.1.6-.3.6-.8.6-1.3 0-.3-.1-.4-.4-.2-.8.7-1.7 1.4-2.6 2.2m-16.6-4.6c-.3 0-.6-.1-.5.4.1.9.1 1.8.2 2.6 0 .1.1.2.1.2.1-.1.3-.1.3-.2.3-.5.6-1 .8-1.5.2-.4.2-.9.3-1.3-.3-.1-.7-.2-1.2-.2m14.8-63.8c.1.1.1.1.2.1.2.1.4.2.5.3-.1-.2-.1-.4-.2-.5-.9-.9-1.5-2.1-2.7-2.6-.2-.1-.5-.3-.7-.4-.1-.1-.1-.2-.1-.2.5-.2.1-.3-.1-.4-.2-.2-.4-.3-.7-.4-.2-.1-.5-.1-.7-.2.2.2.3.4.5.5.1.1.3.2.4.2-.1 0-.3 0-.4.1v.2c.8.6 1.3 1.5 2.4 1.5.1 0 .1.1.2.2.4.4.8 1 1.4 1.6m-2-4.1c.2.3.4.7.7.9.6.6 1.3 1.1 1.9 1.6.1.1.2.1.3.1 0-.1 0-.2-.1-.3-.4-.6-.8-1.1-1.3-1.7-.7-.8-1.5-1.6-2.3-2.3-.1-.1-.2-.1-.4-.1 0 .1 0 .3.1.4.4.6.7 1 1.1 1.4m22.6-15.2c.6 0 1.2.1 1.8.1.2 0 .6-.2.6-.3.1-.3.1-.6-.4-.7-.9-.1-1.7-.2-2.6-.3-.1 0-.3.2-.2.3.1.4.1.9.8.9m35.6 37.8c-.5.1-1 .1-1.4.2-.1 0-.3.2-.3.3s.2.3.3.3c.1.1.3 0 .5 0 .8 0 1.6-.1 2.4-.1.9-.1 1.8-.1 2.7-.1.1 0 .2-.1.3-.1-.1-.1-.2-.2-.4-.2-.7 0-1.4 0-2.1 0-.7-.1-1.3-.3-2-.3m-33.4-43.4c-.1.7-.2 1.3-.2 2 0 .2.1.4.1.5.1-.2.2-.3.3-.5.1-.1.1-.2.1-.3 0-.4.1-.7.1-1.1 0 .3 0 .7.1 1 0 .1.1.1.2.2.1-.1.1-.2.1-.2.1-.3.2-.7.2-1.1-.1-.8.6-1.6-.1-2.4-.1-.1-.2-.2-.2-.3-.1.1-.2.2-.2.3-.2.7-.4 1.3-.5 1.9m-5 18.6c.1.2.2.3.3.5.1-.1.2-.3.2-.4 0-1.2-.1-2.3-.1-3.5 0-1.1 0-2.3 0-3.4 0-.1-.1-.2-.2-.3 0 .1-.1.2-.1.3-.1.5-.1 1-.1 1.5-.1 1.7-.1 3.4 0 5.3m-3.7-13.2c.1.4.3.6.7.5.3-.1.6-.1.9-.2.2-.1.4-.2.5-.3-.2-.3.4-.8-.4-.9-.4 0-.9.1-1.1-.4 0-.1-.5 0-.6.1s-.1.4-.1.6 0 .3.1.6m-9.9 83.8c-1.2.9-2.3 1.8-3.5 2.8-.1.1-.1.3-.1.5.2 0 .4 0 .6-.1.6-.4 1.1-1 1.7-1.4.5-.3.8-1.2 1.7-.8 0 0 .1-.1.1-.2 0-.3.1-.6 0-.8-.1-.3-.3-.3-.5 0m49.3-49.6c.6-.1.6-.5.5-.9-.1-.2-.6-.4-.7-.3-.9.6-1.7 1.2-2.1 2.2 0 .1 0 .2.1.3.1 0 .3 0 .4-.1.2-.7 1-.8 1.8-1.2m-49.5 4 .3.3c.1.1.2.1.3.2 0-.1.1-.3.1-.4.1-.5.1-1 .1-1.5 0-.1-.2-.3-.3-.4-.5 0-1.1 0-1.6 0-.1 0-.2 0-.3.1 0 .1.1.2.1.3.4.4.8.8 1.3 1.4m-35.8 48c-.7 0-1.5-.1-2.2 0-.5.1-1 .3-1.5.6-.2.1-.2.3-.4.5.2 0 .3.1.5.1.1 0 .3-.1.4-.1.4-.1.7-.3 1.1-.3.7-.1 1.5-.1 2.2-.2.1 0 .3-.2.4-.3-.2-.2-.3-.2-.5-.3m74.6-78.2c.1-.1.4-.3.4-.4-.1-.2-.2-.5-.4-.6-.1-.1-.5 0-.6.1-.3.3-.5.6-.8.9-.3.2-.3.4 0 .7.7.6.7.7 1.1-.2.1-.2.2-.3.3-.5m21.4 68.1c.1 0 .2 0 .2-.1.1-.1.2-.3.3-.4-.2 0-.3-.1-.5-.1-.4-.1-.8 0-1.1-.2-.5-.2-1.3.2-1.3.8 0 .1.2.2.3.2.7-.1 1.4-.1 2.1-.2m-89.2-.2c.4-.2.8-.3 1.2-.5.1-.1.1-.3.2-.5-.1 0-.3 0-.4.1-1.2.2-2.4.5-3.5.7-.1 0-.1.1-.2.2.1.1.2.2.2.2.9 0 1.7-.1 2.5-.2m74-32.4c-.1.1-.3.2-.3.4-.1 1.4-.2 2.8-.3 4.2 0 .2.1.4.1.6.1-.2.2-.3.3-.5 0-.1 0-.2 0-.3 0-1.4.1-2.7.1-4.1.1-.1.2-.2.1-.3m-25.7-57.6c.1-.1.2-.1.2-.2.1-.1.1-.3.1-.4-.3.1-.8.1-.8.2-.1.6-.8 1.1-.4 1.8.1.1.3.2.4.2h.6c.1 0 .3-.1.4-.1-.1-.1-.3-.3-.4-.3-.6 0-.4-.3-.3-.6 0-.3.1-.4.2-.6m-39.3 70.9v2.5c0 .1.1.3.2.4 0-.1.1-.3.1-.4 0-1.8 0-3.7 0-5.5 0-.2 0-.4-.1-.6-.1.2-.2.4-.2.5s-.1.2-.1.3c0 .9.1 1.8.1 2.8m35.1-57c0-.1 0-.2 0-.3-.3-.6-.9-.3-1.3-.3-.7 0-.8.2-.5.8 0 .1 0 .1.1.2s1.4-.1 1.7-.4m-32.7 36.4c-.2.1-.5.2-.7.2s-.4-.1-.6-.1c.1.2.2.4.4.5l.3.6c0 .1.1.2.2.2.3 0 .6-.1.9-.1.1 0 .2-.1.3-.1-.1-.1-.1-.2-.2-.3-.1-.3-.3-.6-.6-.9m-19.4 45.3.9-.3c-.3-.1-.6-.3-1-.3-.8 0-1.5.2-2.3.3-.1 0-.2.2-.2.3s.1.2.2.3h.6c.6-.1 1.1-.2 1.8-.3m15.9-30.8c0-.5 0-1 0-1.5 0-.1-.1-.3-.1-.4-.1.1-.3.3-.3.4-.1.6-.1 1.1-.1 1.7 0 .7.1 1.4.1 2.1 0 .1 0 .1.1.2 0-.1 0-.1.1-.2.1-.2.1-.4.1-.7 0-.5 0-1 .1-1.6m4 15.2c0 .1.1.1.1.2v.4c0-.1.1-.2.1-.4 0-1.5 0-3 0-4.5 0-.1-.1-.3-.1-.4-.1.1-.2.2-.3.3v.4c.1 1.4.1 2.6.2 4m38.7-41.8c.4-.5-.2-.5-.4-.6-.5-.6-1.3-.7-2.1-.8-.1 0-.2.1-.4.1 0 .1.1.2.1.2 1 .4 1.9.7 2.8 1.1m-51.7 63.1c.5 0 .9.1 1.4.1.8 0 1.6-.1 2.4-.1.1 0 .3-.1.4-.2-.1 0-.2-.1-.4-.1-1.2 0-2.5.1-3.8.3m82.8-53.7c.2.1.5.4.7.4.5-.1 1-.3 1.5-.5.1 0 .1-.1.2-.2-.1 0-.1-.1-.2-.1-.7 0-1.4 0-2.2 0 .1 0 0 .2 0 .4m3.7 39.9c.3-.3.1-.4-.2-.4-.7 0-1.5.1-2.2.1-.1 0-.2.1-.3.1s-.1.1-.2.2c.1 0 .1.1.2.1.6.1 1.1.1 1.7.1.3.1.6-.1 1-.2m-21.3-59c-.3.2-.6.5-.8.7-.3.2-.5.5-.8.8.3-.1.7-.2 1-.4.5-.4 1-.8 1.5-1.2.1-.1 0-.4 0-.6-.1.1-.3.2-.4.3-.2.1-.3.3-.5.4m-70 23c.5-.5.9-1.1.8-1.9 0-.1-.2-.3-.2-.2-.8.3-1.1 1.3-.6 2.1m49.1-18c0-.9.1-1.8.1-2.6 0-.4-.1-.8-.2-1.2 0-.1-.1-.1-.2-.2 0 .1-.1.2-.1.3v4c0 .1.1.2.1.3.2-.3.2-.4.3-.6m43.5 53.5c-.2.2-.4.3-.6.5 0 0 .1.2.1.2h1.4c.1 0 .3-.2.4-.3-.2-.1-.1-.6-.6-.5-.1 0-.3 0-.7.1m-41.1-86.4c.1-.1.2-.3.3-.4 0-.2 0-.4 0-.6-.2.1-.4.2-.5.3-.2.2-.4.5-.5.8-.1.2-.1.4-.1.7.2-.1.4-.1.6-.3.1-.1.2-.3.2-.5m-51.3 89.3c.5.1 1 .2 1.5.2.1 0 .3-.1.4-.2 0-.1 0-.2-.1-.2-.7-.2-1.3-.3-2-.4-.1 0-.3.1-.4.2s0 .3 0 .4c.1.1.3.1.6 0m14.4 9.7c0-.4 0-.7 0-1.1 0-.1-.2-.2-.3-.3 0 .1-.1.2-.1.2 0 .6.1 1.1-.1 1.7v.3c.1.2.3.3.4.5.1-.2.1-.3.2-.5-.1-.2-.1-.5-.1-.8m-5.1-8.4c-.6.1-1.2.2-1.8.4-.1 0-.2.1-.4.1.1.1.2.3.4.3h1.1c.6 0 .8-.2.7-.8m37.7-90c.2-.1.4-.2.5-.3.3-.4.5-.8.7-1.2.1-.1.1-.2.1-.3-.1 0-.3-.1-.4 0-.7.3-.9 1-.9 1.8m-14.7 31.6c-.2-.1-.4-.3-.7-.4-.1 0-.2 0-.4 0 .1.1.1.2.2.3.4.4.9.8 1.4 1.2.1.1.3.1.4.1 0-.1-.1-.3-.2-.4-.2-.2-.4-.4-.7-.8m4.7-15.2c.4-.2.8-.4 1.2-.6.1-.1.3-.2.4-.4-.2 0-.3-.1-.5 0-.5.2-1.1.5-1.6.7-.2.1-.3.2-.5.4.2 0 .4-.1.6-.1zm-20.7 84.6c.2-.1.3-.1.5-.2-.1-.1-.3-.2-.4-.2s-.1-.1-.2-.2c-.6-.4-.7-.4-.8.4v.8.3c.1-.1.2-.1.2-.2.1-.4.1-.8.7-.7m61.7-53.1c0 .5.7 1 1.1.9.1 0 .1-.1.2-.1-.2-.3-.3-.6-.5-.9-.3-.1-.5-.4-.8.1m-29.1-49.4c-.3.4-.6.8-.9 1.3v.2c.3 0 .7.2.8-.3.1-.4.3-.8.4-1.2 0-.1 0-.2 0-.2s-.1.1-.3.2m-50.9 49c.1-.2.4-.4.4-.7s-.1-.5-.1-.8c-.2.2-.4.4-.7.6.2.3-.3.9.4.9m54.5-48c.1-.3.3-.7.4-1 0-.1-.1-.2-.1-.3-.1.1-.2.1-.3.2-.2.3-.4.6-.5.9s-.1.7-.2 1c.2-.2.4-.4.5-.6.1-.1.1-.1.2-.2m-.4 14.3c-.2 0-.4.1-.6.1.1.1.1.3.2.3.6.1 1.2.1 1.8.1.1 0 .1-.1.2-.2-.1-.1-.1-.2-.2-.2-.4 0-.8 0-1.4-.1m27.7 32.6c.1-.2.2-.4.2-.6-.2.1-.5.1-.7.2-.1.1-.3.2-.3.3-.1.2-.1.4-.1.6.2-.1.3-.1.5-.2.2 0 .2-.2.4-.3m-1.9-1.2c0 .3 0 .7-.1 1v.6c.1-.2.3-.3.4-.5s.2-.5.2-.8c0-.2-.3-.3-.5-.3m-36.4-7.7c0 .2-.1.4-.1.6.2-.1.3-.2.5-.3.3-.2.6-.5.8-.7l.2-.2c-.1 0-.2-.1-.3-.1-.4.3-.7.5-1.1.7m42.1 10.4c-.2.1-.5.2-.6.4-.1.1-.1.4-.2.6.1 0 .3-.1.4-.2.2-.2.5-.3.7-.5.1-.1.1-.2.1-.3-.1-.1-.2-.1-.4 0m-82.9 45.8c.2 0 .4-.1.6-.1.1 0 .2-.1.3-.2-.1 0-.2-.1-.3-.1-.4 0-.8 0-1.3 0-.1 0-.2.1-.3.1.1.1.1.3.2.3.2.1.4 0 .8 0m40.2-55c.1-.2.1-.5.2-.7-.2.1-.4.2-.6.3-.1 0-.2.1-.3.2s-.2.3-.1.3c0 .1.2.2.3.2s.2-.1.5-.3m-14-11.1c.3-.6-.3-.6-.6-.8-.1-.1-.3 0-.5 0 .1.2.1.4.2.5.2.2.5.2.9.3m47.2-1.8h.3c-.3-.6-.6-1.1-1-1.7 0-.1-.2 0-.3-.1v.2c.4.6.7 1.1 1 1.6m10 24.3c.2.2.3.5.5.5s.4-.3.7-.4c-.2-.1-.5-.2-.7-.2-.2-.2-.4-.1-.5.1m-66.9-13.1c-.2.3-.4.6-.5.9-.1.1 0 .3 0 .5.1-.1.2-.2.2-.3.2-.3.3-.7.5-1.1.1-.2.1-.5.2-.8h-.1c0 .3-.1.5-.3.8m32.8-22.9c-.1.1-.2.2-.3.4 0 0 .1.2.1.2.3 0 .7 0 1-.2.2-.1.4-.3.6-.5-.3 0-.5-.1-.8 0-.2 0-.3 0-.6.1m18.8 34.9c-.3 0-.6-.1-.9-.1v.1c.3.1.5.2.8.2h.3c.3 0 .6-.1.9-.1-.4 0-.7 0-1.1-.1m-59.8 39.4c-.1-.1-.3-.3-.4-.3-.2 0-.5.1-.7.2-.1 0-.1.3-.1.3.2.1.4.2.6.2.2-.1.4-.2.6-.4m34.3-39.6c-.6-.5-1.3-.2-2-.2-.1 0-.1.1-.2.1.1 0 .1.1.2.1.7.1 1.4.1 2 0m-23.2-14.7c.1-.3.2-.6.3-.9 0-.1-.1-.1-.1-.2 0 0-.1 0-.2.1-.2.3-.3.6-.4 1v.5c.2-.1.3-.2.4-.5m-7.5 60.8c.2-.1.3-.2.5-.3-.2 0-.3-.1-.5-.1-.1 0-.2 0-.3 0-.2 0-.4 0-.5.1-.1 0 0 .3 0 .4.3-.1.5-.1.8-.1m77.8-47.8s-.1-.1-.1-.1c-.2.4-.3.8-.5 1.3 0 0 .1.2.2.1.1 0 .2-.1.3-.2 0-.3.1-.6.1-1.1m-53.8.8h.7s.1-.2.1-.2c-.3-.2-.7-.4-1-.5 0 .1-.1.2-.1.2 0 .1.1.3.3.5m58.3 42.6c-.7-.1-.4.6-.7.8.1 0 .2.1.2.1.2-.2.4-.4.6-.7.1 0 0 0-.1-.2m-51.2-75.8c0-.1 0-.3 0-.4-.5.1-1 .3-1.5.4-.1 0-.1.1-.2.1 0 0 .1.1.1.1.6-.1 1-.2 1.6-.2m50.6 72.6c-.2 0-.4 0-.6 0-.1 0-.2.1-.3.2.1 0 .2.1.3.1.4.1.8.1 1.1.1.1 0 .2-.1.3-.2-.1-.1-.1-.2-.2-.2-.2 0-.3 0-.6 0m-15.1-44.1c-.1.2-.1.5-.2.7.2-.1.5-.1.7-.2.1-.1.1-.4.1-.6-.2 0-.3 0-.6.1m.2 28.8c0-.4.1-.7.1-1.1 0-.1 0-.2 0-.2-.1.1-.2.1-.2.2-.1.4-.1.9-.2 1.3 0 .1.1.2.1.3.1-.1.2-.3.2-.5m-19-27.8c0 .1.1.1.1.2.1-.2.3-.5.3-.7s-.2-.4-.3-.6c0 0-.1 0-.2 0 0 .2.1.4.1.6.1.1 0 .2 0 .5m-30.1-43.8c.3-.2.6-.4.9-.6-.3.1-.7.2-1 .4h-.1c-.2.1-.3.2-.5.3.3 0 .4 0 .7-.1m52.9 87.2c-.1.1-.2.3-.3.4.2 0 .4.1.5 0l.3-.6c-.2 0-.3.1-.5.2m-22.5-89.7c-.3 0-.6.1-.9.1.3.1.5.2.8.2 0 0 .1.1.1.1.2 0 .3-.1.5-.1-.2-.1-.3-.2-.5-.3m-46.4 96.3c.1.2.2.3.3.5 0-.2.1-.4.1-.6 0-.1-.1-.2-.2-.4-.1.2-.1.3-.2.5m-.4-50.7c.1.3.2.6.3.9 0 .1.1.1.2.2 0-.3.1-.5.1-.8-.1-.1-.4-.2-.6-.3m23 2.7c-.1-.2-.1-.5-.2-.7-.1.1-.3.2-.3.3 0 .2.1.5.2.7.1-.2.2-.2.3-.3m-27.6 41.1c-.2 0-.4.1-.6.1.1.2.2.3.3.5.1-.2.2-.3.3-.6m13.8-58c-.2.3-.4.6-.6.9.1 0 .2.1.2.1.2-.3.3-.6.5-.9 0-.2 0-.2-.1-.1m-11.5 17.8c-.1.1-.2.1-.3.2.1.1.2.3.3.3.2-.1.4-.2.6-.4-.2-.1-.4-.1-.6-.1m55.5 51c0 .1-.1.2-.1.3.2-.1.4-.1.5-.2.1 0 0-.2.1-.3-.1 0-.3 0-.5.2m25.1-50.7c-.1-.1-.2-.1-.3-.2 0 .2-.1.4-.1.6 0 .1.2.1.3.2 0-.2.1-.3.1-.6m-79 0c0-.2 0-.4-.1-.6-.1.2-.2.3-.3.5v.1.4zm42.6-32.7c.2 0 .3.1.5.1.1 0 .3 0 .4-.1-.1-.1-.2-.2-.3-.3-.2 0-.5 0-.8 0 .1.1.1.1.2.3m-54.6 33.9c0 .3-.1.5-.1.8 0 0 .1.1.2.1 0-.2.1-.4.1-.6.1-.2 0-.2-.2-.3m17.3-14c.1-.3.2-.5.4-.8-.1 0-.2-.1-.2-.1-.1.2-.3.5-.4.7 0 .1 0 .2.2.2m40.2-19.1h.3c-.2-.1-.5-.3-.7-.4-.1 0-.2.1-.3.1.2.1.4.2.7.3m6.4 33.4c-.2 0-.4 0-.6 0-.1 0-.1.1-.2.2.2 0 .3.1.5.1.1-.1.6.2.3-.3m-27.8-35.9c-.1 0-.2 0-.3 0-.2.1-.3.2-.4.3 0 0 .1.2.1.2.1 0 .3-.1.4-.1.1-.1.3-.1.4-.1-.1-.3-.1-.3-.2-.3m6-14.1c.1-.1.3-.2.4-.4 0 0-.1-.2-.1-.3 0 .2-.1.4-.3.7m12.8 47.8c.2-.1.4-.2.6-.4-.2 0-.4-.1-.5 0-.1 0-.1.2-.1.4m-21.2 11.2v.6c0 .1 0 .1.1.2.1 0 .2 0 .2-.1-.1-.2-.1-.5-.3-.7m39.6-31.1c.1.1.3.2.4.3 0-.2 0-.4 0-.6-.1.1-.2.2-.4.3m-15.6 22c-.2 0-.4 0-.6.1 0 0-.1.1-.1.1s0 .1.1.1c.2.2.6 0 .6-.3m-41.6 39.7c0-.2.1-.4.1-.6s0-.3 0-.5h-.1c0 .2-.1.4-.1.6 0 .1 0 .3.1.5m43.1-43.7v.3c0 .2.1.3.2.5 0-.2.1-.4.1-.5 0-.2-.1-.3-.3-.3m-33.6-43.2c.2 0 .3.1.5.1.1 0 .2-.1.3-.1-.1-.1-.2-.2-.4-.2 0 0-.2.1-.4.2m-1.3.7h.1c.3-.1.5-.2.8-.3-.2.1-.6.1-.9.3m-26.7 87.6h.5c-.1-.1-.2-.2-.4-.3 0 0-.1.2-.1.3m1.8-59.2c0-.1 0-.1 0-.2-.1.2-.2.5-.2.7 0 0 .1.1.2.1-.1-.1 0-.3 0-.6m16.7 45.2c0-.2 0-.4 0-.6 0 0-.1-.1-.1-.1-.2.1-.1.7.1.7m31.6-48.6c-.1-.2-.1-.3-.2-.5-.1.1-.2.2-.2.3.1.1.2.2.4.2m36.2 20.9c.5.2.2-.2.3-.4 0-.1-.1-.2-.2-.3 0 .2-.1.4-.1.7m-49.7-34.3c.1 0 .3-.1.4-.1-.1-.1-.2-.2-.2-.2-.2.1-.4.2-.6.3zm26.7 35.2h.5c.1 0 .1 0 .1-.1s0-.2 0-.2c-.3.1-.5.2-.6.3m4.7-.2c-.1.1-.1.1-.2.2.2 0 .4.1.6.1 0 0 .1-.1.1-.2-.1-.1-.3-.1-.5-.1m-1 0c-.1 0-.2.1-.4.1 0 .1.1.2.1.2.1 0 .3 0 .4-.1 0-.1 0-.2-.1-.2m-8.1-34.1c-.2.1-.3.1-.5.2.1.1.3.1.4.2 0 0 .1-.2.1-.4m-48.3 29.1c-.2 0-.3.1-.5.1 0 .1 0 .1.1.2.1-.1.3-.2.4-.3m4.2 16.1c-.1 0-.1 0-.2 0 0 .2.1.4.1.5.1-.1.2-.3.1-.5m73.6-17.8v-.1s0 0-.1 0c-.2 0-.5 0-.7 0v.1zm-73.6 17.3c0-.2 0-.4 0-.6h-.1c0 .3 0 .5.1.6m3.8 26.8c-.1.1-.2.2-.3.4.1 0 .1.1.2.1 0-.2.1-.3.1-.5m-14.7 2.4c-.1 0-.2 0-.3 0s-.2.1-.3.1c.1 0 .2 0 .3.1.2 0 .3.1.5.1-.1 0-.1-.2-.2-.3m82.2.4c-.2 0-.3 0-.5-.1v.1c.2.1.4.1.5 0m-29.7-42.2c.1 0 .3-.1.4-.1 0-.1-.1-.2-.1-.2-.2.1-.3.1-.3.3m-6.3-18.9c0-.1 0-.2-.1-.4-.1 0-.1.1-.2.1zm-31.2 43.4c0 .1.1.1 0 0h.1c0-.2 0-.4 0-.6 0 0-.1.1-.1.1zm76.8-29.9v.2c.1-.1.2-.2.2-.4 0 .1-.1.1-.2.2m-77.4 35.3c.1 0 .2-.1.2-.1s0-.1 0-.2c-.1.1-.2.1-.2.3m26.5-64.7c.1 0 .2.1.3.1 0-.1 0-.1 0-.2-.2 0-.3.1-.3.1m16.7 37.1c-.1-.1-.2-.2-.3-.4 0 0-.1.1-.1.1.1.2.2.3.4.3m-2.3-.1c-.1-.1-.2-.1-.2-.2-.1.1-.1.2-.2.2zm-12.1-37.6c0-.1.1-.1.1-.2-.1 0-.3.1-.4.1.1 0 .2.1.3.1m-22.7-7.9c0-.1 0-.1 0 0-.1-.1-.2-.1-.3-.1v.2c0-.1.1-.1.3-.1m20.6 11.5c-.1.1-.1.1-.2.2 0 0 .1.1.1.1.1-.1.2-.2.1-.3m10.3 0c-.1 0-.1.1-.2.1h.4c.1 0 .2-.1.3-.1-.1 0-.2 0-.5 0m-25-14.5c.1.1.2.1.4.2 0-.1 0-.1.1-.2-.2 0-.3 0-.5 0m50.1 61.1v.4h.2c-.1-.1-.1-.2-.2-.4m-17.4-15.7c0 .1 0 .2.1.3h.2c0-.1-.1-.2-.3-.3m23.7-.1c-.1.1-.1.2-.1.3h.2s0-.1-.1-.3m-38-31h.3c0-.1-.1-.1-.1-.2-.1 0-.2.1-.2.2z"/><path d="m138.7 74.4c.5-.1 1-.2 1.5-.3.1 0 .2-.1.4-.1 2.5-.1 5.1 0 7.6-.2.8 0 1.4-.1 2 .4.1.1.1.2.1.3s.1.2.1.3.1.2.1.3c-.1.1-.2.1-.3.1-.2 0-.3 0-.5.1 0 .2.1.5.1.7 0 .1.2.2.3.3-.2 0-.3 0-.5.1-.2 0-.4 0-.6 0-1.3-.2-2.2.6-2.9 1.5-1.6 2.2-2.6 4.8-3.2 7.5-.2.9 0 1.9.1 2.8.1.6.3 1.2.3 1.8v7.6c0 1.4-.1 2.7-.1 4 0 3.6.1 7.2.2 10.8 0 1 .3 1.9.5 2.9 0 .1.1.2.1.3.1 2.5.2 5 .3 7.5v6.3c0 1.4.2 2.8.3 4.2 0 .4-.1.7-.1 1.1v3.4c0 6.5.1 13 .1 19.5 0 1.9 0 3.7.2 5.6.2 2 .5 4.1.7 6.1.1 1 0 1.9 0 2.9 0 .4.3.9.5 1.3.1.2.1.3.1.5-.1.6-.4 1.2-.4 1.8-.1.7 0 1.4.1 2.1 0 .1.1.3.2.3.8 0 1 .8 1.4 1.3.6.7 1.2.9 2.1.7.9-.3 1.4.1 1.4 1 .1 1.4.3 2.8.4 4.2 0 0 0 .1.1.1.7.8 0 .9-.5 1-.9.2-1.7.3-2.6.4-1.6.2-3.2.4-4.8.6-.8.1-1.5-.1-2.3-.1-1.1-.1-2.3-.2-3.4-.3-1 0-1 0-1.1-1-.1-1.3-.2-2.7-.4-4-.1-.4-.4-.8-.6-1.2s-.2-.3.2-.4c.2 0 .3-.2.5-.2 1-.3 2-.6 3-.8.4-.1.6-.1.6-.5 0-.2.4-.6.6-.6.9 0 .7-.6.7-1.1 0-1-.1-2-.1-3 0-1.7 0-3.4 0-5.1 0-4.9-.1-9.8-.1-14.7 0-2.7.1-5.4.1-8.1 0-1.7.1-3.4.1-5.1.1-2.3.1-4.5.1-6.8 0-2.4.1-4.8.1-7.2 0-1.3.1-2.5.1-3.8.1-1.5.2-3 .1-4.4 0-2.3-.1-4.7-.3-7-.2-1.7-.1-3.3.2-5v-.1c0-3.4.2-6.8.1-10.3 0-1.5-.4-3.1-.5-4.6 0-.1 0-.3 0-.4 0-.3 0-.6.1-.8.1.3.1.5.2.8.3 1 .6 2 .4 3 0 .1.1.3.2.4.1-.1.2-.3.2-.4 0-1.3 0-2.5 0-3.8 0-.2-.2-.4-.3-.5 0 .2-.1.4-.1.6 0 .4.1.8.1 1.1-.1-.4-.2-.8-.2-1.1-.2-1.2-.3-2.3-.4-3.5-.2-2.1-.2-4.3-.5-6.4-.1-1.1-.3-2.3-1.3-3.2-.8-.7-1.6-1.3-2.4-1.9-.2-.1-.4-.3-.6-.3s-.4 0-.6.1-.4.4-.5.3c-.2-.1-.4-.3-.4-.5 0-.5-.2-.8-.6-1-.1 0-.1-.2-.2-.2.1-.1.2-.2.3-.2 1-.2 1.9-.5 2.9-.7.6-.1 1.2.1 1.7.1.3 0 .6 0 1 .1-.3 0-.6.1-1 .1-.4.1-.3.4-.5.6m5.2 112.5c.1 0 .1-.1.2-.1 1.6-.2 3.3-.4 4.9-.6.6-.1 1.1-.5 1.2-1.1s0-1.2 0-1.8c0-.2-.2-.4-.4-.5-.5-.2-1.3.1-1.6.6-.4.6-1 1.1-1.7 1.1-2.4.1-4.8 0-7-.9-.7-.3-1.5-.4-2.2-.6-.1 0-.3.2-.3.3.1.9.2 1.8.3 2.7 0 .2.3.5.4.5 2 .1 4 .6 6.2.4m.5-15.3c0-.1-.1-.1-.1-.2-.1-1.9-.2-3.9-.3-5.8-.1-2.2-.2-4.5-.3-6.7 0-.3-.1-.6-.2-.9 0-.1-.2-.2-.2-.3 0 .1-.1.2-.1.3 0 .8.1 1.6.1 2.4.1 1.2.1 2.4.1 3.6v1.3c.1.9.2 1.8.3 2.7 0 1-.1 1.9-.1 2.9 0 .2-.1.4-.2.6-.1-.2-.2-.4-.3-.6 0-.1 0-.2 0-.3.1-.5-.4-1 .1-1.6.2-.3-.1-.9-.1-1.4-.1-1.2-.1-2.4-.1-3.6-.1-2.7-.1-5.4-.1-8.1 0-.2 0-.4 0-.6 0-.1-.1-.2-.1-.3-.1.1-.2.2-.2.3v4.4 8.7.6 1.3c0 .6-.1 1.3 0 1.9.1 1.4.4 2.7.5 4 .1.5-.2 1.1-.1 1.6 0 .2.4.4.7.6.1 0 .4-.2.4-.4 0-2.2.2-4.2.3-6.4m-2.6-91.5c0 .1.1.3.1.4.1.3.2.5.4.8.1-.2.3-.4.4-.6 1.2-1.4 2.4-2.8 3.6-4.1.1-.1.2-.3.3-.4-.2 0-.3-.1-.5-.1-1 0-2 0-3 0-.7 0-1.4 0-2.2 0-.1 0-.3.2-.4.2-.8-.1-1.6-.2-2.4-.3-.1 0-.3.1-.4.1.1.1.2.3.4.4s.5 0 .7.1c.4.1.9.2 1.1.5.7.9 1.3 1.9 1.9 3m1.8 48.5c0-.9 0-1.8 0-2.7 0-.1-.2-.2-.3-.3 0 .1-.1.2-.1.3-.1 1.5-.2 2.9-.3 4.4-.1 2.2-.1 4.4-.2 6.6 0 2.4-.1 4.8-.1 7.2 0 1.6-.1 3.1-.1 4.7v4c0 .4 0 .8.1 1.2 0 .2 0 .4.1.6 0 0 .1 0 .1.1.1-.2.2-.4.2-.6.1-1.7.1-3.3.1-5 .1-2 .1-4 .1-6.1 0-.1 0-.2 0-.3.6-1.6.5-3.3.5-5s-.1-3.4-.1-5.1c-.1-1.3 0-2.6 0-4m-6.4 51.6c-.6.7-.4 1.8.5 2.1 1.2.4 2.4 1 3.7 1.2 2.4.4 4.9 1.4 6.9-1 .3-.3.8-.5 1.2-.8.1-.1.3-.2.3-.4.1-.1.1-.3 0-.4-.3-.2-.5-.4-.8-.5-.1 0-.3.1-.4.2 0 0 0 .2.1.3.6.5.1.6-.3.8-.3.1-.5.2-.8.3-1 .4-2.1.3-3.1.5-1.7.2-3.4.4-5-.2-1-.4-1.5-.8-1.5-1.9 0-.6-.3-.4-.8-.2m2.2-.2c-.1 0-.2 0-.3.1-.3.6-.1 1.5.5 1.7s1.3.4 2 .4c1.5 0 3.1-.1 4.6-.3s1.7-.6 1.2-1.6c-.2-.4-.3-.5-.7-.2-1.3.9-2.8 1-4.3 1-.2 0-.4 0-.5.1-.5.4-.8.1-1.2-.2s-.8-.6-1.3-1m3.6-80.9c0-.5.1-1.1.1-1.6 0-2.7-.1-5.5-.1-8.2 0-.7-.1-1.5-.1-2.2 0-.1-.1-.2-.1-.3-.1 0-.1.1-.1.1-.1.8-.3 1.6-.3 2.5 0 .7.4 1.4.4 2.2.1 1.9 0 3.7 0 5.6 0 .6-.1 1.1-.1 1.7-.1 0 .1.1.3.2m.4 51.8c-.1 1.7-.2 3.4-.3 5.1 0 .2-.1.5 0 .6.1.2.3.3.5.4.1-.2.2-.3.2-.5 0-.9 0-1.7 0-2.6 0-1.6 0-3.3 0-4.9 0-.2-.1-.4-.2-.6-.1.2-.2.4-.2.6zm-.1-30v.9 1.4c0 .1.1.1.1.2 0-.1.1-.1.1-.2 0-.3 0-.7 0-1-.1-2.5-.2-5-.3-7.4 0-.1-.1-.2-.1-.3-.1.1-.3.2-.3.3 0 .5.1 1 .1 1.4.2 1.5.3 3 .4 4.7m-2.7-46.1c-.7 0-1.4 0-2.2 0-.3 0-.6.1-.9.2.3.1.6.2.9.2 1.2.1 2.3.1 3.5.1 1 0 2-.1 3-.1.1 0 .2-.1.3-.2-.1-.1-.3-.2-.4-.2-.3 0-.7.1-1 .1-1 0-2-.1-3.2-.1m2.2 8.7c.3-.8.6-1.6.9-2.4.1-.2.1-.3.1-.5-.2.1-.4.3-.5.5-.6.8-.9 1.8-.9 2.8v1c.1-.4.3-.7.4-1.1.1 0 0-.1 0-.3m-1-1c.5-.6-.1-1.2-.2-1.7 0-.1-.1-.2-.2-.3 0 .1-.1.2-.1.3v1.9c0 .4 0 .7.1 1.1.1-.4.2-.9.4-1.3m7-7c.2-.1.4-.1.6-.2-.2-.1-.4-.2-.7-.2-.8.1-1.6.2-2.4.3-.1 0-.2.2-.3.3.1 0 .2.1.3.1.5 0 1.1.1 1.6-.3.2-.2.5 0 .9 0m-6.8 36.8v.4c0 .1.1.3.2.4 0-.1.1-.3.1-.4 0-.6 0-1.2 0-1.8 0-.1-.1-.2-.1-.3-.1.1-.2.2-.2.3zm7.3-36.5c-.4 0-.7-.1-1.1-.1v.3c.4 0 .7-.1 1.1-.1.1 0 .1 0 0-.1m-1.3-1.3h.3c.1 0 .1-.2.1-.2 0-.1-.1-.2-.2-.2-.2.1-.4.2-.6.2zm-12.4.1c.2 0 .4.1.5.1s.2-.1.3-.2c-.1-.1-.3-.2-.4-.2s-.2.1-.4.3m7.6 104.6c0 .1-.1.2-.1.3h.4s-.1-.2-.3-.3m-1.6-93c0-.2.1-.4.1-.5 0 0-.1-.1-.1-.1zm-.3 92.9c-.1 0-.3 0-.4.1 0 .1.1.2.1.3.1-.1.2-.1.3-.4m2.4 1c0 .1 0 .2.1.3.1-.1.2-.1.3-.2-.1 0-.2-.1-.4-.1m-.4-56.4c.1.1.1.1.2.2 0-.1.1-.3.1-.4-.1.1-.2.1-.3.2z"/><path d="m.5 69.9c-.2-.1-.4-.3-.5-.4h.7 3.9c.2 0 .5-.4.6-.6.4-1.2.7-2.5 1-3.8.2-.5.4-1.1.6-1.6 0-.1.3-.2.3-.2.2.1.4.3.4.4l.3 3c0 .6.1 1.3.2 1.9 0 .1.3.4.5.3 1-.2 2-.4 3-.5.4-.1.7 0 .9.4s.3.6-.3.6c-.2 0-.4 0-.5.1-.4.8-1.1.6-1.8.7-.5.1-1.1.1-1.6.2-.1 0-.2.3-.1.4.5.8 1 1.6 1.5 2.4.4.7.8 1.4 1.1 2.1.1.2 0 .4.1.6-.2 0-.4 0-.5-.1-.5-.5-1.1-1.1-1.6-1.7-.7-.8-1.2-1.8-1.9-2.6-.2-.3-.6-.2-.8.1-.5.8-1 1.6-1.3 2.4s-.5 1.6-.7 2.5c0 .1-.2.2-.2.4-.1-.2-.3-.3-.3-.5-.3-1.5.8-2.8.9-4.2.1-.9.1-1.2-.8-1.4-1.1-.4-2-.6-3.1-.9m4.7.8c0-.1 0-.2 0-.3-.1.1-.2.1-.2.2 0 0 .1.1.2.1z"/><path d="m77.7 26.1c2-.3 4.1.1 6-.6.2-.1.5 0 .7 0 1.2-.3 1.2-.3 1.2-1.6 0-2.9 0-5.8 0-8.7 0-2.4-.2-4.7-.3-7.1 0-1.4.1-2.7.1-4.1 0-.7-.2-1.3-.3-2 0-.1-.2-.3-.3-.3-2.1-.2-4.2-.4-6.2-.6-1.4-.1-2.8-.3-4.2-.4-1.1-.1-2.2-.2-3.2-.3-.4 0-.8.1-1.2.1-.1 0-.2-.1-.3-.2.1-.1.2-.2.3-.2.4 0 .8-.1 1.2-.1.8 0 1.6.1 2.4.1 1.7.2 3.4.4 5.1.6.9.1 1.8.2 2.7.3 1.2.1 2.4.2 3.7.3.6.1 1 .7 1 1.6.1 1.7.1 3.4.1 5.1 0 2.1-.1 4.3-.1 6.4 0 3.1.1 6.3.1 9.4 0 .2 0 .3.1.5.4.6.2 1.1-.5 1.2-.8.2-1.8.5-2.8.5-1.7.2-3.3.2-5 .3-1.8 0-3.5 0-5.3 0-.9 0-1.7-.1-2.6-.3-.5-.1-.5.2-.4.4.5.5.5 1.1.3 1.5-.2.6.1 1.1 0 1.7-.1.5-.1.2-.2 0-.1 0-.2.1-.2.1v1.9c0 .1.1.2.2.3.1-.1.2-.3.2-.4 0-.3-.1-.6-.1-.9 0-.1 0-.1.1-.2 0 .1.1.1.1.2.1.2.1.4.1.6.1 1.5.1 2.9.2 4.4 0 .8.2 1.6.3 2.4.1.3 0 .5-.2.5s-.6-.3-.6-.5c-.1-1.2-.3-2.3-.3-3.5 0-1.9 0-3.8 0-5.7-.1-2.2-.3-4.3-.4-6.4-.1-1.4-.2-2.8-.3-4.2 0-.1 0-.2.1-.3 0 .1.1.2.1.2v.8c0 .1.2.3.3.4 0 .1.1.1.1.2-.1 0-.2-.1-.2 0-.1.1-.2.2-.2.3.2 1.3.4 2.7.6 4 .1.5.2 1 .3 1.5 0 .1.2.2.2.2.5.1 1.1.1 1.6.1 1.7.1 3.3.1 5 .2.3.1.6.2.9.3m-7.9 9.4c0 .1 0 .2.1.3 0 .1.1.2.1.3 0-.3.1-.7.1-1-.1 0-.2.2-.3.4m.2-1.5c0-.2 0-.3 0-.5 0-.1 0-.1-.1-.1s-.2 0-.2 0c.1.2.2.4.3.6m16-23.8c0-.2-.1-.3-.1-.5-.1 0-.1 0-.2.1.1.1.2.3.3.4z"/><path d="m178.3 137c-1-.4-1-.7-.7-1.6.2-.7 1-1.2.9-2 0-.1.2-.3.4-.3.4-.1.9-.2 1.2-.6 0 0 .3.1.4.2.2.5.5.5.9.2 1-.6 2-1.2 3.1-1.6.5-.2 1.2-.4 1.7.2.1.1.2.5.1.6-.8 1.2-1.6 2.4-3 3.1-.5.3-.2.7 0 1 .4.7.9 1.3 1.3 2 .1.1.1.3.1.4-.1-.1-.3-.1-.3-.2-.6-.8-1.1-1.5-1.7-2.3-.2-.3-.5-.5-.7-.8.1.3.1.6.2.9.3.7.6 1.4.9 2.1 0 0 .1.1.1.1-.1.1-.4.2-.4.2 0 .2.2.4.2.7-.2 0-.4 0-.5-.1-.5-.5-.9-1-1.3-1.4-.1-.1-.4-.2-.4-.2-.3.4-.5.1-.7 0-.5-.3-1.1-.7-1.8-.6m2.1-.8c-.1.3-.1.5-.2.8 0 0 .1 0 .2.1 0-.2.1-.4.1-.6 0-.1 0-.2-.1-.3z"/><path d="m10.2 17.6c0 .3.1.7.2 1 .3 1 .6 2 1 3 .1.3.4.6.5.9.1.1.1.3.1.4-.1 0-.3 0-.4-.1-.3-.3-.7-.7-.9-1.1-.6-.9-1.2-1.8-1.7-2.7-.3-.5-.5-.5-.8-.1-.7.8-1.4 1.6-2.2 2.4-.4.4-.7.9-1.3.8-.1 0-.2-.2-.1-.3.2-.4.4-.8.7-1.2.5-.7 1-1.5 1.5-2.2.2-.3.2-.5-.1-.7-1-.7-2-1.4-3.1-2.1-.1-.1-.2-.1-.2-.2.1 0 .2-.1.3-.1.4.1.8.3 1.1.5.7.5 1.5.6 2.4.5.2 0 .6-.3.6-.6.2-1.3.4-2.6.6-4 0-.2.2-.4.3-.4s.3.1.4.2.1.3.1.5c.1 1.2.1 2.4.1 3.6 0 .5.1.6.6.4.8-.4 1.7-.8 2.6-1.2.2-.1.3-.1.5-.1-.1.1-.1.3-.2.4-1 1-1.8 1.8-2.6 2.5m-3.4-.7c.1.1.2.3.3.3s.3 0 .4-.1c-.1-.1-.2-.2-.4-.3 0 0-.1 0-.3.1m.4.8c-.2-.1-.4-.2-.6-.3 0 0-.1.1-.2.2.2.1.4.1.6.2.1 0 .1 0 .2-.1m1.4-1.2c-.1 0-.1.1-.2.1.1.1.2.1.3.2 0-.1 0-.2-.1-.3z"/><path d="m39.3 26.6c.1 1.8.1 3.5.1 5.3v.1c-.1-.1-.2-.2-.3-.2 0 .1.1.3.1.4v.6c0 .1 0 .2-.1.3-.1-.1-.1-.2-.1-.3 0-.7-.1-1.4-.1-2 0 0 .1-.1.1-.1.3 0 .3 0 .3-.3 0-.2 0-.4 0-.5 0-.2-.1-.3-.1-.5-.1.1-.2.3-.3.4s-.1.2-.1.3c0-.1-.1-.2-.1-.3-.1-1.5-.1-3-.1-4.5 0-2.2.1-4.4.1-6.6 0-1.2.1-2.3.1-3.5 0-2.4 0-4.8 0-7.1 0-1.2.4-1.5 1.2-1.9 1.2-.5 2.4-1.3 3.6-1.8.8-.4 1.8-.5 2.6-.7.4-.1.9-.1 1.3-.2.8-.1 1.4.1 2.1.4.4.2.8.6 1.2.5.6-.1 1-.6 1.5-.9.3-.2.6-.5.9-.7.8-.6 1.8-.2 1.9.8.1.7.1 1.4.1 2.1v6.5 3.3c0 .9.1 1.7.1 2.6 0 .1-.1.2-.1.3 0-.1 0-.2-.1-.3-.1-.8-.3-1.7-.3-2.5 0-3 0-6.1 0-9.1 0-1.2-.3-2.3-.4-3.5 0 0-.3-.1-.4-.1-.8.6-1.6 1.3-2.5 1.7-1.4.7-2.8 1.2-4.2 1.7-.3.1-.6.2-.9.3.3-.2.6-.4.9-.5.9-.4 1.8-.8 2.6-1.2.1 0 .2-.1.3-.1.2 0 .4 0 .6-.1-.2-.1-.3-.3-.5-.4-1.3-.8-2.6-.6-4-.5-2.3.3-4.1 1.7-6.1 2.7-.3.1-.4.6-.6.9v.4c0 3.6-.1 7.2-.1 10.8 0 .1.1.5-.2.1h-.2c0 .4-.1.7-.1 1.1 0 0 .1.1.2.1 0 0 .1-.1.1-.1 0-.1.1-.3.1-.4v.5c0 1.2-.1 2.5-.1 3.7 0 .1 0 .2-.1.3 0-.1-.1-.2-.1-.3s0-.2 0-.4c0-.1 0-.1-.1-.2 0 0-.1.1-.1.1-.1.5-.3 1.2-.1 1.4.8.8.3 1.5.5 2.1m-.4-1c-.1.4-.2.9-.2 1.3 0 .3.1.6.2.9.1-.3.2-.6.2-.9s0-.6 0-.9c0-.1-.1-.3-.2-.4m.2-9.1c0 .3-.1.6-.1 1 0 .2.1.3.2.5 0-.2.1-.3.1-.5 0-.3-.1-.7-.2-1m0 12.3c0-.2 0-.4 0-.6-.1.1-.2.2-.2.3.1.1-.4.6.2.3m0-17.2c.1.1.2.1.2.2 0-.2 0-.3 0-.5 0 0-.1.1-.2.3m0 9.5v-.1h-.1v.4s.1-.1.1-.3z"/><path d="m104.3 4.5c0-.4 0-.8 0-1.2 0-.2 0-.3 0-.5-.1 0-.1 0-.2 0 0 .1.1.3.1.4-.1.5-.3 1-.4 1.6-.1.3-.2.7 0 .9.6.7.2 1.5.3 2.2 0 .8-.1 1.6-.1 2.4-.1.9-.2 1.8-.3 2.7 0 .7-.2-.2-.3 0v.8c0 .2.3.3.3.5v1.8.2c-.1 0-.1-.1-.2-.1-.1-.1-.1-.1-.2-.2-.1.1-.2.2-.2.3s.1.2.1.2c.1.1.3.3.3.4 0 1.9-.1 3.8-.1 5.7 0 .6-.1 1.1-.1 1.6 0 .2.2.4.4.5 1.6.4 3.1.7 4.7 1.1 1.8.4 3.6.7 5.4 1.1.6.1 1.3.2 1.9.3 1 .2 2-.3 2.3-1.3 0 0 .1-.1.1-.1v.2c.1.6-.3 1.1-.8 1.1-1 .1-2.1.2-3.1.1-1.8-.2-3.6-.6-5.3-1-1.4-.3-2.8-.7-4.3-1-.3-.1-.7-.2-1-.2-.1 0-.2.1-.2.2-.1.4-.1.7-.1 1.1v5.7c0 2.6.1 5.2.1 7.7 0 .4.1.7.2 1.1 0 .2.3.3.4.5.1-.1.3-.3.4-.4s.1-.2.2-.3c0 .1.1.3.1.3-.2.3-.5.7-.8.8-.6.1-.9-.3-1.1-.8 0-.1 0-.2 0-.3 0-2.4-.1-4.8-.1-7.2 0-.7.1-1.3.1-2 0-.1 0-.1.1-.2 0 .1.1.2.1.2v2.3c0 .1.1.2.1.3 0-.1.1-.2.1-.3 0-1.5 0-3.1 0-4.6 0-.5 0-.9 0-1.4 0-.4-.1-.3-.4-.1 0-1.5.1-2.9.1-4.4.1-2.6.2-5.2.3-7.8s0-5.2.2-7.8c.1-1.9.5-3.7.8-5.5.1-.7.7-1.1 1.3-.8.1 0 .1.2.2.3-.9 0-.7.9-.9 1.3-.4.4-.4 1-.5 1.6m-1.2 30.9c0-.3 0-.7 0-1 0-.1-.1-.1-.2-.2 0 .1-.1.1-.1.2v2.3c0 .1.1.1.1.2.1-.1.2-.1.2-.2 0-.4 0-.8 0-1.3m-.1 3c0-.4.1-.8.1-1.1 0-.1-.1-.1-.2-.2 0 0-.1 0-.1.1.1.4.1.9.2 1.2m.5-30.2c0 .1.1.1.1.2.1-.2.2-.3.2-.5 0-.1-.1-.2-.2-.3 0 .1 0 .3-.1.6m.5-1.6c0-.1 0-.2 0-.3s-.1-.1-.2-.2c0 .2-.1.4-.1.5s.1.1.3 0m-.5 8.6c0-.1 0-.3 0-.4 0 0-.1 0-.1-.1 0 .2 0 .4.1.5m0 3.1c-.1-.1-.2-.1-.2-.2 0 .1-.1.2 0 .2 0 .1.1.1.2 0m1.2-16.4c0-.1-.1-.1-.1-.2-.1.1-.1.2-.2.3.1.1.2.1.3-.1m-1.5 15.8c.1 0 .2 0 .3-.1v-.2c-.1.1-.2.1-.3.3m0 5.4c-.1-.1-.1-.1-.2-.2 0 .1-.1.3-.1.4.1 0 .2-.1.3-.2z"/><path d="m174.2 124.9c.1 0 .1.1.2.1s.2.1.3.1c-.1.1-.2.2-.3.2-1.6.1-2.8 1-4.1 1.7-.5.3-.6.8-.7 1.3s-.1 1-.1 1.6c0 .4-.2.4-.4.2s-.4-.4-.6-.7c-.4-.7-.7-1.5-1.1-2.2-.2-.3-.7-.4-1-.6-.4-.3-.8-.7-1.2-1.1s-.8-.7-1.3-1c-.2-.1-.3-.3-.5-.4.2-.1.5-.3.7-.3 1.4.1 2.5.9 3.7 1.6.5.3.9.6 1.3.9.4.2.7.3 1-.1.8-1.1 1.9-1.3 3.1-1.5.4-.1.7.1 1 .2-.2 0-.3.1-.4.1 0 .1.1.1.1.2.1-.1.2-.2.3-.3m-7.9.2c-.1 0-.2 0-.3 0 0 .1 0 .2.1.3.2.2.5.4.8.5h.3c0-.1 0-.2-.1-.3-.3-.2-.5-.3-.8-.5z"/><path d="m85.3 40.3c-.7.2-1.3.4-1.9.6-.2.1-.3.3-.4.5s-.1.4-.2.6c0 .1-.1.2-.2.3 0-.1-.1-.2-.1-.3-.1-.5-.1-1-.9-.8-.7.2-1.5 0-2.3 0-1.5.1-3.1.5-4.6.5-1.4.1-2.8 0-4.1-.2-.2 0-.4-.8-.6-1.2-.1-.2 0-.4 0-.6s.1-.4.1-.6c.1.2.3.3.3.5.1.2.2.5.1.7-.1.8.5.9 1 .9 1.2 0 2.4.1 3.6 0 1.8-.1 3.6-.4 5.5-.5.8-.1 1.5-.1 2.3-.1s1.1-.4.9-1.1c-.1-.3-.2-.6-.2-.9.2.3.4.5.5.8.1.1.1.3.2.4s.3.2.5.3c.1-.2.3-.3.3-.5.1-.9.2-1.8.3-2.7.1-1.7.2-3.4.3-5.1.1-1.8.1-3.7.2-5.5 0-.2.3-.4.5-.6 0 .1.1.2.1.4 0 2 .1 4 0 6.1-.1 2.3-.2 4.6-.4 6.9-.2.4-.5.8-.8 1.2m.5-5c0 .2 0 .3.1.5h.1c0-.1-.1-.3-.2-.5z"/><path d="m50.1 45c-1.9-.1-3.7-.1-5.4-.3-1.4-.1-2.8-.4-4.3-.6-.1 0-.2 0-.3-.1s-.2-.2-.2-.4c-.1.2-.2.4-.2.6.2 1.2-.2 2.6.5 3.7 0 .1-.1.3-.1.4-.1-.1-.3-.1-.4-.2-.1-.5-.2-1-.3-1.4-.1-.9-.1-1.8-.1-2.6 0-.6 0-1.2.5-1.7.1-.1 0-.2-.2-.2-.1 0-.2-.1-.2-.1-.1-1.1-.4-2.3-.2-3.4.2-1.2.1-2.4.2-3.6 0-.5-.1-.9-.1-1.4 0 0 .1-.1.1-.1.1 0 .1 0 .2.1v.2c0 1.2.1 2.3.2 3.5.2 1.8.4 3.7.6 5.5v.2c-.1.6.2.9.8 1 1.4.2 2.9.4 4.3.6.7.1 1.4.1 2.1.1h7.4c.5 0 1-.3 1.5-.6.6-.4.6-1.1.6-1.8 0-.6-.1-1.2-.1-1.8-.1-2-.2-3.9-.3-5.9-.1-1.4-.2-2.7-.3-4.1 0-.1.1-.2.1-.3v.3c.1 1.7.1 3.4.3 5 .4 2.8.6 5.6.6 8.4 0 1-.1 1.8-.9 2.5-.1.1-.2.2-.3.2 0-.1-.1-.1-.1-.2s.1-.3.2-.4c.3-.2.9-1.6.7-1.9 0-.1-.4-.1-.4 0-.6.7-1.4.8-2.3.8-1.4 0-2.8 0-4.2 0z"/><path d="m101.6 45.2c-.5-1.3-1-2.6-.8-4.1 0-.1 0-.3 0-.4.1-.3.3-.6.5-.9 0 .3.1.6.1.8 0 1.4 0 2.8.8 4 .2.3.1.7.1 1 0 .5.2.6.7.5.7-.1 1.3-.1 2-.1 2.2-.1 4.5-.1 6.7-.1.9 0 1.7-.7 1.4-1.6-.2-.7.2-1 .4-1.5.3-.8.7-1.5 1.1-2.3.1-.2.3-.3.4-.5.1.2.2.4.2.7 0 .1-.1.3-.1.4-.7 1.6-.6 3.2.2 4.7.2.5-.1.5-.4.5-2.8 0-5.5 0-8.3 0-1.1 0-2.2.1-3.3.1-1.4.3-1.4-.2-1.7-1.2m11.5.9h.6c1.2 0 1.2 0 .9-1.1-.1-.4-.1-.9-.2-1.4 0-.2-.1-.3-.2-.5-.1 0-.1.1-.1.1-.4.9-.8 1.7-1.2 2.6 0 .2.1.2.2.3z"/><path d="m69.2 15.5c-.6.3-.6.3-.6-.5.1-1.4.2-2.8.3-4.2 0-.3-.1-.6-.1-.9 0-2.3.1-4.6.1-6.9 0-.6-.1-1.1-.6-1.5-.1-.1-.1-.2-.1-.3.1 0 .2.1.3.1 1 .7 1.4 1.6 1.1 2.9-.3 1-.1 2.1-.2 3.2v3.6c0 .4.1.5.5.5 1.3 0 2.7 0 4 .1 1.6.2 3.3.5 4.9.7.5.1 1 .1 1.5.1 1 .1 1.9.1 2.9.1.1 0 .2.1.2.1-.1 0-.2.1-.3.1-1.9-.1-3.8-.3-5.7-.4-1.1-.1-2.1-.2-3.2-.3-1.5-.1-3-.2-4.4-.3-.1 0-.3.2-.3.3v2.2c-.2.5-.3.9-.3 1.3m-.3-.8c0 .2.1.4.1.6 0-.2 0-.4 0-.7 0 .1 0 .1-.1.1z"/><path d="m71.9 45c-.6.1-1.1.4-1.6.4-.2 0-.6-.3-.7-.5-.2-.5-.3-1-.3-1.5 0-.9 0-1.8-.4-2.7 0-.1 0-.3 0-.4.1 0 .3 0 .4.1.2.4.4.8.4 1.3.1.9.1 1.8.2 2.6 0 .4.1.9.7.7 3-.7 6-.3 9-.4.9 0 1.7.1 2.6.1.1 0 .2 0 .3.1-.1.1-.1.2-.2.2-.2 0-.4 0-.6 0-.4 0-.8-.1-1.2-.1-2.2 0-4.3 0-6.5 0-.7 0-1.4.1-2.1.1z"/><path d="m120.7 12.2c-.1-2.6.4-5.1 1.2-7.5.1-.4.2-.8.2-1.3 0-.1 0-.1.1-.2 0 .1.1.1.1.2 0 .5.1 1 0 1.4-.4 2-.7 4-.7 6 0 1-.2 2-.3 2.9 0 .1-.1.1-.1.2 0-.1 0-.1 0-.2 0-.9.1-1.8.1-2.6 0-.1-.1-.3-.1-.4-.1.1-.3.2-.3.4-.2.4-.2.8-.2 1.1m.2-2.2c.1.1.1.1.2.2 0-.1.1-.2.1-.3-.1 0-.2 0-.3.1z"/><path d="m41.2 47.8c-.1-.1-.1-.1-.1-.1-.2-.1-.4-.2-.6-.2.2 0 .4.1.6.1h4.4c1.2 0 2.4.1 3.6.1.7 0 1.3.2 2 .3 1.6.1 3.2.1 4.9.1.4 0 .7-.1 1.1-.1.1 0 .3 0 .4-.1-.1.1-.3.3-.4.3-.6.1-1.1.2-1.7.1-1 0-2.1-.1-3.1-.1-2-.1-4.1-.3-6.1-.4-.9 0-1.8.1-2.7.1-.9.1-1.6 0-2.3-.1z"/><path d="m108.3 1.1c-.9-.3-1.8-.6-2.6-.8-.1 0-.2-.1-.2-.2h.3c1.6.6 3.2.8 4.8 1.1 1.7.2 3.4.6 5.1.8h.8c1.4.1 2.9.2 4.3.3.1 0 .1 0 .2.1-.1 0-.2.1-.3.1-1.1 0-2.2-.2-3.3-.1-1.5 0-2.9-.4-4.4-.6-1.6-.3-3.1-.5-4.7-.7z"/><path d="m119.8 26.9c0-.7 0-1.4 0-2 0-.1 0-.2 0-.3 0 .1.1.2.1.3v6.4c0 .2 0 .5.1.7.1-.3.2-.5.2-.8 0-1.6 0-3.3 0-4.9 0-.1 0-.3.1-.4 0 .1.1.2.1.3v1.8 5.2c0 .9-.2 1.9-.3 2.8 0 .1-.1.3-.2.4 0-.1 0-.3 0-.4 0-.5.1-1 .1-1.5-.1-2.5-.2-5-.2-7.6m.4 5.6c-.1-.1-.1-.2-.2-.3 0 0-.1.1-.1.1.1.1.1.2.3.2z"/><path d="m114 39.2c-.6.3-1.2.7-1.9 1-.2.1-.3.2-.5.4.2 0 .4.1.6 0 .4-.1.9-.3 1.3-.4h.3c-.1.1-.2.2-.3.2-1.4.4-2.8.9-4.3.5-.6-.2-1.3-.4-1.9-.6-.1 0-.1-.1-.2-.2.1 0 .2-.1.3-.1.4 0 .8-.1 1.3-.1 0 0 .1.1.1.1.4.6.9.7 1.5.4 1.3-.4 2.5-.8 3.7-1.2z"/><path d="m112.8 11c-1.1 0-2.1.1-3.1 0-1.1-.1-2.2-.4-3.2-.6-.1 0-.2-.2-.2-.4.1 0 .2.1.3.1 1.1.2 2.3.5 3.4.6 1.3.1 2.5 0 3.8 0 .1 0 .2.1.3.1-.1 0-.2 0-.3.1-.3 0-.6 0-1 .1z"/><path d="m44.8 27.9c.6.1 1.2.3 1.7.4 1.4.3 2.9.5 4.3.7h.1c.3 0 .6 0 .9.1-.3 0-.6.1-.9.1-1.1-.1-2.3-.3-3.4-.4-.8-.1-1.6-.3-2.4-.4-.2-.1-.5-.2-.7-.4 0 0-.1-.1-.1-.2.3 0 .4.1.5.1z"/><path d="m120.6 22.9c0 .6-.1 1-.1 1.5 0 .1 0 .2-.1.3 0-.1-.1-.2-.1-.3.1-1.7.2-3.3.3-5 0-.1 0-.2 0-.4 0-.4.1-.8.1-1.2 0 .4.1.8.1 1.2-.1 1.4-.1 2.6-.2 3.9z"/><path d="m120.6 12.2c-.1 1.7-.2 3.5-.3 5.2 0 .1 0 .1-.1.2 0-.1-.1-.1-.1-.2.1-1.3.2-2.7.3-4 .1-.4.1-.8.2-1.2z"/><path d="m56 26.2c-.1-1-.2-2.1-.2-3.2 0-.1.1-.2.1-.3 0 .1.1.2.1.3z"/><path d="m56.4 30.1c-.1-.3-.2-.7-.3-1.2 0-.5 0-1.1 0-1.6 0-.1 0-.1 0-.2 0 .1.1.1.1.2.1.9.1 1.8.2 2.8z"/><path d="m120.9 14.8c0 .6.1 1.2.1 1.8 0 .1-.1.2-.1.2 0 .2-.1.4-.1.6 0-.2-.1-.4 0-.6 0-.6.1-1.3.1-2z"/><path d="m102.6 27.5c.1.5.1.9.2 1.4 0 .1 0 .1-.1.2 0-.1-.1-.1-.1-.2 0-.5 0-.9 0-1.4z"/><path d="m119.9 21.6c0-.5.1-1 .1-1.4v1.3.2c0 .1-.1.3-.1.4 0-.1 0-.2 0-.5z"/><path d="m69.2 15.6c0 .5.1 1 .1 1.5 0 0 0 .1-.1.1 0-.1-.1-.1-.1-.2.1-.5.1-.9.1-1.4z"/><path d="m68.9 17.2v.5c0-.1-.1-.3-.1-.4s0-.1 0-.2c0-.3 0-.5 0-.8 0 .4.1.6.1.9z"/><path d="m55.7 22.2c0-.3.1-.6.1-.8v.8.3c-.1-.1-.1-.2-.1-.3z"/><path d="m104.2 4.5v.8c0 .1-.1.2-.1.3 0-.1-.1-.2-.1-.3.1-.2.1-.5.2-.8z"/><path d="m114.1 39.2v-.1c.2-.2.4-.3.6-.4 0 0 0 .1.1.1-.2 0-.5.2-.7.4z"/><path d="m55.6 21c0-.3 0-.7 0-1.1z"/><path d="m119.9 23.4c0 .1-.1.2-.1.3 0-.1 0-.2 0-.3 0-.2 0-.4 0-.6 0 .1.1.3.1.6z"/><path d="m69.9 24c0-.2 0-.5 0-.8-.1.3 0 .5 0 .8z"/><path d="m55.4 19.3c0-.1 0-.2 0-.2 0-.1.1-.3.1-.4 0 .2.1.3.1.5-.1 0-.1.1-.2.1z"/><path d="m75.9 136.3c-1.9.2-3.8.4-5.7.6-1.1.1-2.2.2-3.3.3-.2 0-.5-.3-.7-.5.1-.1.1-.2.2-.2.9-.1 1.9-.2 2.8-.3 1.9-.2 3.8-.4 5.7-.5 1.3-.1 2.6.1 3.9.1h3.8c.2 0 .5-.1.6 0 .2.1.3.3.4.5-.2.1-.3.2-.5.2-2.4-.1-4.8-.1-7.2-.2z"/><path d="m71.6 138.2c1-.1 1.9-.2 2.9-.3 1.9-.1 3.7-.2 5.6-.3 1.3 0 2.6.1 4 .1.1 0 .2.1.3.1-.1.1-.2.2-.3.2-1.9.1-3.8.2-5.6.3s-3.7.1-5.5.5c-1.1.2-2.3.2-3.4.2-.1 0-.3 0-.4 0-.3-.1-.5-.3-.7-.4.2-.1.5-.2.7-.2.7-.1 1.5-.2 2.4-.2m2.1.3c-.1-.1-.1-.2-.2-.3-.1 0-.2.1-.3.2.1 0 .2 0 .5.1m-1.4 0c.1 0 .3-.1.4-.1v-.1c-.1.1-.3.1-.4.2z"/><path d="m64.2 137.3c.2-.6.4-1.1.6-1.6 0-.1.3-.1.4 0 .8.6.9 1.8 0 2.3-.6.4-.7-.2-1-.7m.4-.2c.2.1.3.1.5.2.1-.3.1-.6.2-.9 0-.1-.1-.1-.2-.2-.1.2-.2.3-.3.5-.1.1-.1.2-.2.4z"/><path d="m74.1 140.2c.4.5-.1.7-.2.6-.3 0-.6-.2-.9-.4l.2-.2c.3.1.6 0 .9 0z"/><path d="m50.1 149.9h.4c-.1 0-.1.1-.2.1s-.2 0-.3 0c-.2 0-.4 0-.6 0 .2-.1.4-.1.7-.1z"/><path d="m46.7 71.8c1.5 2.2 3 4.4 4.5 6.6 0 .1.1.2.1.2v.3c-.1-.1-.1-.1-.2-.2-1.7-2.5-3.5-4.9-5.2-7.4-.4-.5-.6-1.1-1.4-1.1 0 0-.1-.1-.1-.1.1 0 .1-.1.2-.1.2 0 .4 0 .6.1.5.5 1 1.1 1.5 1.7z"/><path d="m43.9 83.3c.4.3.7.6 1 .9v.2c-.1 0-.1-.1-.2-.1-1.3-1.2-2.9-2-4.5-2.8-1.3-.6-2.7-1.2-4-1.9-.1 0-.2-.1-.2-.1.1 0 .2-.1.3 0 .8.3 1.7.5 2.5.9 1.5.7 3 1.6 4.5 2.4.2.1.3.3.6.5z"/><path d="m53.6 77.5c.1 0 .1.1 0 0-.1.1-.3.2-.4.3 0 0 0-.1-.1-.1.2-.1.3-.1.5-.2z"/><path d="m97.1 76.7c-.2.3-.3.6-.4 1 0-.3 0-.7.1-1 .7-1.5 1.5-3 2.2-4.5.7-1.4 1.4-2.8 2-4.2 0-.1 0-.1.1-.2.2-.2.3-.4.5-.6-.1.2-.1.5-.2.7-.8 1.6-1.6 3.2-2.4 4.8-.5 1.3-1.2 2.6-1.9 4z"/><path d="m88.9 72.4c0-.1 0-.1 0-.1.1-.3.2-.7.3-1 0 .4-.1.8-.1 1.1 0 .1-.1.1-.1.2-.1.3-.2.6-.3.9 0-.4.1-.7.2-1.1z"/><path d="m39.6 132.4s.1 0 .1.1c.1 1.2.1 2.4.2 3.6 0 .3 0 .4-.4.4-.3 0-.6.2-1 .2-.2 0-.4 0-.6-.1-.1 0-.1-.2-.2-.3.1-.1.3-.2.4-.2.2 0 .3.2.4.2 1.2-.1 1.1-.1 1-1.3 0-.9.1-1.7.1-2.6z"/><path d="m38.5 152.6c.1-.1.1-.2.2-.3s.3-.3.4-.4c0 .2.1.4.1.6v.4c0 .2 0 .4.1.5-.3 0-.6-.1-.8-.2-.1 0-.1-.4 0-.6z"/><path d="m39.1 140.1c-.3.5-.7.5-1.1.2-.1 0-.2-.2-.1-.2.2-.2.4-.4.6-.5 0 0 .1.1.1.1.1.1.3.2.5.4z"/><path d="m74.9 107c-.9.1-1.7.2-2.5.3-.1 0-.2-.1-.3-.1.1-.1.2-.1.3-.2 1.5-.2 3-.3 4.4-.4.5-.1.9-.3 1.4-.4.1 0 .2 0 .3.1-.1 0-.2.1-.2.1-1 .8-2.2.6-3.4.6z"/><path d="m79.8 106.4c.6-.2 1.3-.3 2-.4.1 0 .1.1.2.1-.1.1-.1.2-.2.2-.5.1-.9.2-1.4.4-.4.1-.5 0-.6-.3z"/><path d="m71.8 105.4c.7 0 1.3.1 2 .1.1 0 .2 0 .3-.1-.1.1-.1.2-.2.3s-.2.1-.3.1c-.4 0-.9-.3-1.2.1-.3-.1-.5-.2-.6-.5z"/><path d="m78.6 104.8c.4-.2.9-.4 1.3 0 .1 0 0 .2.1.2-.1 0-.2 0-.2 0-.4 0-.8-.1-1.2-.2z"/><path d="m76.7 105.3c-.2-.2-.3-.3-.4-.5.2 0 .4 0 .5.1.1 0 0 .2-.1.4z"/><path d="m75.9 105.1c-.2.1-.3.2-.4.3-.1 0-.3 0-.5 0 0 0 0-.1-.1-.2.1 0 .3-.1.5-.1z"/><path d="m78.6 104.8s-.1.1-.2.1c-.2 0-.4 0-.7 0 0 0 0-.1-.1-.1h.6z"/><path d="m71.8 105.4c-.1 0-.1 0-.2-.1s-.2-.1-.4-.2c.1-.1.2-.2.3-.2.1.2.2.3.3.5z"/><path d="m70.4 105.7c.1-.1.2-.1.3-.2-.1.1-.1.2-.2.3 0 .1-.1 0-.1-.1z"/><path d="m45.1 109.1c-.2.3-.4.5-.1.9v.2c0-.1-.1-.1-.1-.2-.4-.4-.5-.7.2-.9z"/><path d="m75.2 58.7c-.1-.2-.2-.3-.3-.5.1.1.3.1.4.2.1 0 0 .2-.1.3z"/><path d="m89.2 97c-.1.2-.2.4-.4.7-.1 0-.3 0-.4 0 .1-.1.1-.2.2-.2.2-.2.4-.3.6-.5z"/><path d="m72.4 60.4c.2-.1.4-.3.6-.4-.1.1-.1.3-.2.4 0 .1 0 .2-.1.2-.1.2-.3.3-.4.4 0-.1.1-.4.1-.6z"/><path d="m80.9 67.9v.5c0-.2-.1-.4-.1-.6s0 .1.1.1z"/><path d="m142.3 76.6h.5c-.2 0-.4.1-.6.1s0 0 .1-.1z"/></svg>