<?xml version="1.0" encoding="utf-8"?>
<!-- Generator: Adobe Illustrator 26.2.1, SVG Export Plug-In . SVG Version: 6.00 Build 0)  -->
<svg version="1.1" id="Layer_1" xmlns="http://www.w3.org/2000/svg" xmlns:xlink="http://www.w3.org/1999/xlink" x="0px" y="0px"
	 viewBox="0 0 34.2 194.2" style="enable-background:new 0 0 34.2 194.2;" xml:space="preserve">
<style type="text/css">
	.st0{fill:#000000;}
</style>
<g>
	<path class="st0" d="M15.4,194.1c-3.4-0.4-6.7-0.5-9.8-1.7c-0.8-0.3-1.8-0.3-2.7-0.5c-2.1-0.5-3.3-1.3-2.6-3.8c0-0.1,0-0.3-0.1-0.4
		c-0.2-0.7-0.3-1.4,0.4-2c0.2-0.2,0.4-0.5,0.5-0.8c0.4-1.7,1.7-2.1,3.2-2.4c0.5-0.1,1.1-0.2,1.7-0.2c0.6,0,0.9-0.2,1-0.9
		c0-0.5,0.1-1,0.2-1.5c0-0.1,0-0.1,0-0.2c0.9-0.9,1.7-2,2.6-2.8c0.6-0.5,1.3-0.8,2.1-1c0.7-0.2,0.7-0.6,0.8-1.1
		c0.1-3.5,0.1-6.9,0.1-10.4c0-1.7-0.1-3.4-0.2-5.1c0-0.3-0.1-0.7-0.2-0.9c-0.7-1.6-0.4-3.2-0.2-4.8c0-0.2,0-0.4,0-0.7
		c0.1-2.4,0.1-4.7,0.3-7.1c0.1-1.6,0.5-3.1,0.8-4.7c0.1-0.9,0.2-1.9,0.2-2.8c0.2-2.2,0.3-4.4,0.4-6.7c0.2-3.6,0.3-7.2,0.5-10.8
		c0.1-3.2,0.2-6.5,0.3-9.7c0.1-2.8,0.3-5.7,0.5-8.5c0.1-2,0.4-4,0.6-6c0.1-0.9,0.1-1.9,0.2-2.8c0.2-2.3,0.5-4.5,0.6-6.8
		c0.1-0.8-0.2-1.5-0.1-2.3c0.1-2.1,0.5-4.2-0.2-6.3c-0.1-0.4-0.2-0.7-0.8-0.7c-1.6,0.1-3.1,0.1-4.7,0.2c-1.9,0-2.7-0.9-2.7-2.6
		c0-2.6-0.1-5.1-0.1-7.7c0-1,0.1-1.9,0.2-2.9c0.1-0.9,0.9-1.5,2.2-1.6c1.4-0.1,2.7-0.4,4.1-0.5c0.7-0.1,1.5,0,2.2,0.2
		c2.2,0.7,4.3,0.1,6.4,0c1.3-0.1,2.7,0.1,4,0.2c0.6,0,1.2,0.1,1.7,0.3c1.3,0.4,1.7,0.9,1.7,2.2c0.1,2.9,0.1,5.9,0.1,8.8
		c0,1.9-1.4,3.4-3.4,3.4c-1.5,0-2.9-0.4-4.4-0.6c-0.2,0-0.6,0.2-0.6,0.4c-0.1,1.5-0.2,3-0.3,4.4c-0.1,1.7-0.4,3.4-0.4,5.1
		c-0.1,2.6-0.1,5.2-0.1,7.9c0,0.2,0,0.5,0,0.7c0.1,4.2,0.2,8.3,0.3,12.5c0,1.6,0.2,3.2,0.1,4.9c0,3.1-0.2,6.1-0.2,9.2
		c-0.1,6.1-0.1,12.1-0.2,18.2c-0.1,3.1-0.3,6.2-0.4,9.3c0,1,0,2.1,0,3.1c0,4.6,0.1,9.2,0.1,13.7c0,2-0.2,4-0.2,5.9
		c0,1.4,0,2.8,0,4.1c0,0.5,0.1,0.7,0.8,0.7c1.3-0.1,2.7-0.2,3.9,0.9c0.7,0.6,1.1,1,0.8,2c-0.2,0.5,0,1.1,0.2,1.7
		c0,0.2,0.4,0.4,0.7,0.4c1,0.1,2,0,3,0c1.1,0,2,0.8,2.1,1.9c0,0.3,0.1,0.6,0.2,0.9c0.2,0.8,0.4,1.5-0.1,2.4
		c-0.4,0.7-0.2,1.6-0.1,2.5c0.1,1-0.6,1.5-1.2,2c-0.1,0.1-0.3,0.1-0.3,0.1c-1.7-0.6-3.1,0.4-4.6,0.7
		C22.7,193.4,19.2,194.5,15.4,194.1 M18.7,177.9c0.7,0.1,0.9-0.2,0.9-0.8c-0.1-1.9-0.1-3.8-0.2-5.7c0,0,0-0.1,0-0.1
		c-0.2-2.5-0.3-4.9-0.2-7.4c0.2-3.1,0.6-6.1,0.9-9.2c0.3-2.8,0.2-5.5,0.3-8.3c0.1-2,0.3-4.1,0.4-6.1c0-1.7-0.1-3.3-0.1-5
		c0.1-7.4,0.3-14.9,0.3-22.3c0-4.4-0.2-8.9-0.3-13.3c0-1.9-0.2-3.8-0.1-5.7c0.1-2.5,0.3-5,0.4-7.5c0.1-2.8,0.1-5.7,0.1-8.5
		c0-0.6-0.2-0.7-0.8-0.5c-0.7,0.2-1.6,0.4-2.3,0.4c-0.7,0-1,0.2-0.9,0.9c0,2.1,0,4.2,0,6.2c-0.1,1.5-0.3,2.9-0.4,4.4
		c-0.1,1.5-0.1,3-0.2,4.5c-0.1,1.9-0.3,3.8-0.4,5.7c-0.2,2.7-0.4,5.4-0.4,8.2c-0.1,8.3,0,16.5-0.6,24.8c-0.1,1.2-0.1,2.4-0.2,3.6
		c-0.3,2.7-0.6,5.4-0.8,8.1c-0.1,0.7,0.1,1.4,0.2,2.1c0,4.5,0.1,9,0.1,13.6c0,0.9,0.1,1.8,0.2,2.7c0,0.5,0.2,1,0.2,1.5
		c-0.3,1.8-0.5,3.6-0.4,5.4c0.1,2.1,0,4.3,0,6.4c0,1.5,0.1,1.5,1.6,1.6c1,0.1,2,0.4,2.9,0.6c-1.4-0.1-2.7-0.3-4.1-0.4
		c-0.1,0-0.3,0.1-0.5,0.2c0.1,0.1,0.2,0.4,0.4,0.4c1.3,0.2,2.7,0.4,4,0.6c0.3,0,0.7-0.2,1.1-0.2C19.1,178.2,18.9,178.1,18.7,177.9
		 M10.1,69.6c0.1,0.7,0.1,1.3,0.2,2c0.1,1.2,0.1,2.3,0.2,3.5c0,0.8,0.6,1,1.3,1c1.9-0.1,3.7-0.4,5.6-0.5c2.1-0.1,4.3-0.1,6.4-0.2
		c0.2,0,0.5,0.1,0.7,0c1-0.3,1.9-0.2,2.8,0.1c0.4,0.1,1.1-0.1,1.3-0.3c0.4-0.5,0.7-1.2,0.8-1.9c0.1-0.5-0.2-1.1-0.3-1.6
		c-0.4,0.1-0.8,0.3-1.1,0.2c-0.5-0.1-1-0.5-1.5-0.7c0.3-0.4,0.1-1.5,1.1-0.7c0,0,0.2-0.2,0.2-0.3c0.1-0.1,0.2-0.3,0.3-0.3
		c1.1-0.1,0.7-0.8,0.5-1.4c-0.1-0.4-0.2-0.9-0.2-1.3c-0.2-1.3-0.9-2.2-1.9-2.2c-0.6,0-1.2,0-1.8,0c-0.3,0-0.5,0-0.8,0
		c-0.1,0-0.2,0-0.3,0c0.1,0.1,0.1,0.3,0.2,0.3c0.2,0.2,0.6,0.2,0.8,0.4c0.7,0.5,0.7,1.1,0,2.3c-0.8,1.3-3,1.7-4.1,0.8
		c-0.2-0.2-0.4-0.5-0.4-0.8c0.1-0.7,0.1-1.5,0.4-2.2c0.1-0.3,0.8-0.4,1.2-0.6c0.1,0,0.1-0.1,0.2-0.2c0.1-0.1,0.2-0.2,0.3-0.3
		c-0.1,0-0.2-0.1-0.3-0.1c-1.4-0.1-2.8-0.2-4.2-0.2c-1.8,0-3.7,0.2-5.5,0.3c-1.6,0.1-1.9,0.5-1.9,2c0,0.5-0.2,0.9-0.2,1.4
		C10.1,68.7,10,69.1,10.1,69.6 M31,185.2c-0.2-0.5-1-0.9-0.3-1.5c0.1-0.1,0.2-0.4,0.2-0.4c-0.2-0.2-0.5-0.4-0.8-0.4
		c-0.7,0-1.5,0-2.2,0.1c-0.6,0-1.5-0.2-1,0.9c0,0.1,0,0.2-0.1,0.3c-0.7,1.2-1.9,1.8-3.1,2c-2.6,0.3-5.3,0.8-7.9,0.6
		c-0.6-0.1-1.1-0.1-1.7-0.2c-1.3-0.1-2.5-0.7-3.8,0.3c-0.5,0.3-2,0-2.5-0.6c-0.7-0.7-0.9-1.9-1.2-2.9c-0.1-0.4-0.2-0.5-0.6-0.4
		c-0.6,0.1-1.3,0.2-1.9,0.4c-0.9,0.2-2,1.4-1.8,2.2c0.2,0.8,0.4,1.5,0.8,2.2c1,1.6,2.8,2.1,4.5,2.1c2.3,0.1,4.6-0.3,7-0.5
		c1.1-0.1,2.2-0.2,3.3-0.3c2.3-0.3,4.7-0.6,7-0.9c1.5-0.2,3.1-0.5,4.6-0.8C30.7,187.1,31.3,186.5,31,185.2 M12.2,190.6
		c-1.9-0.1-3.8-0.2-5.7-0.2c-0.3,0-0.7,0.1-1,0.2c0.4,0.3,0.7,0.7,1.1,0.9c0.2,0.1,0.5,0,0.8,0c1.8,0.2,3.6,0.4,5.4,0.6
		c1.9,0.3,3.8,0.3,5.7-0.1c2.7-0.7,5.4-1.2,8.2-1.8c1.1-0.3,2.5-0.3,3.1-1.5c0.1-0.2,0.2-0.3,0.3-0.4c-0.2,0-0.4-0.1-0.5,0
		c-3.3,1-6.8,0.6-10.2,1.1c-1.4,0.2-2.9,0.1-4.3,0.2c-0.2,0-0.4,0.2-0.6,0.3c0.2,0.1,0.4,0.2,0.6,0.2c1.4,0,2.8-0.1,4.2-0.1
		c0.4,0,0.8,0.3,1.2,0.4c-0.4,0.1-0.8,0.3-1.2,0.3C17,190.6,14.7,190.6,12.2,190.6 M9.2,184.3c0.1,0,0.3-0.1,0.4,0
		c0.2,0.1,0.3,0.5,0.5,0.5c1.4,0.3,2.8,0.7,4.2,0.8c2.1,0.1,4.1,0.4,6.2-0.1c1.1-0.3,2.2-0.6,3.3-0.9c0.7-0.2,1.1-0.9,0.9-1.5
		c0-0.2-1-0.3-1.5-0.3c-1.4,0.1-2.9,0.4-4.3,0.5c-1.4,0.1-2.9,0-4.3,0c-1.3,0-2.6-0.1-3.7-0.6c-0.6-0.3-1.2-0.5-1.8-0.8
		c-0.3-0.2-0.6-0.3-0.6,0.2c0,0.8,0,1.6,0,2.4C8.5,184.3,8.9,184.3,9.2,184.3 M11.7,77.4c0.4-0.1,0.8-0.2,1.2-0.2
		c1.7,0,3.5,0.2,5.2,0c2.3-0.3,4.6-0.8,6.9-0.6c0.2,0,0.5,0,0.7-0.1c0.5-0.3,0.8-0.1,1.1,0.3c0.2,0.2,0.5,0.5,0.7,0.5
		c0.7,0.1,2-0.8,2.2-1.5c0.1-0.2,0-0.5,0-0.7c-0.2,0.1-0.5,0.2-0.6,0.4c-0.4,0.9-1.2,0.7-2,0.6c-0.5-0.1-1.1-0.3-1.6-0.3
		c-0.8,0-1.6,0.1-2.5,0.1c-1.8,0.1-3.6,0.1-5.5,0.2c-0.1,0-0.3,0.1-0.4,0.1c-2.1,0.4-4.3,0.5-6.4,0.2c-0.3,0-0.7-0.4-0.7-0.7
		c-0.2-0.7-0.2-1.4-0.2-2.1c0-2.1,0.1-4.3,0-6.4c0-1.2,0.1-2.2,1.2-3C11,64.2,11,64,11,63.9c-0.4-0.3-1.7,0.1-1.9,0.5
		c-0.3,0.9-0.5,1.8-0.5,2.7c0,2.5,0,5,0.1,7.5C8.9,77.3,8.7,77.5,11.7,77.4 M17.2,193c-0.7,0.1-1.4,0.1-2.2,0.2
		c-0.2,0-0.3,0.1-0.5,0.1c0.2,0.1,0.3,0.2,0.5,0.2c1.8,0,3.6-0.1,5.4-0.1c0.1,0,0.1,0,0.2,0c2.8-0.7,5.5-1.3,8.3-2
		c0.3-0.1,0.5-0.4,0.7-0.6c-0.3-0.1-0.7-0.4-1-0.3c-1.6,0.3-3.1,0.6-4.6,1C21.8,191.9,19.6,192.5,17.2,193 M27.7,64.7
		c0.4,0.6,1.2,1.1,1.3,1.8c0.3,1.8,0.4,3.7,0.6,5.5c0,0.3,0,0.5,0.1,0.8c0,0.1,0.2,0.3,0.3,0.4c0.1-0.1,0.2-0.3,0.2-0.4
		c0-1.2-0.1-2.4-0.2-3.7c-0.1-1.2-0.1-2.4-0.2-3.6c-0.1-0.7-0.2-1.4-1-1.6c-0.5-0.1-1-0.2-1.5-0.2c-1.5,0-2.9,0.1-4.4,0.2
		c-0.4,0-0.8,0.2-1.2,0.4c0.4,0.1,0.8,0.3,1.3,0.3C24.5,64.6,26,64.6,27.7,64.7 M24.2,181c-0.2-0.1-0.3-0.2-0.5-0.3
		c-0.6-0.1-1.3,0.3-1.8-0.4c-0.1-0.1-0.6,0.2-1,0.3c0.2,0.1,0.4,0.2,0.6,0.3c0.1,0,0.1,0.1,0.2,0.1c-0.1,0-0.2,0-0.3,0.1
		c-1,0.2-1.9,0.5-2.9,0.7c-0.2,0-0.3,0.1-0.5,0.1c0.2,0.1,0.4,0.3,0.6,0.3c1.3-0.1,2.6-0.3,4-0.5C23.1,181.6,23.8,181.9,24.2,181
		 M22.6,67.3c0.2,0.2,0.3,0.4,0.6,0.5c0.2,0.1,0.5,0.2,0.7,0.3c0.1-0.2,0.2-0.5,0.3-0.7c0-0.2-0.1-0.4-0.1-0.6
		c-0.2-0.6-1.4-1-1.9-0.7c-0.1,0.1-0.1,0.4-0.1,0.5C22.2,66.8,22.4,66.9,22.6,67.3 M13.8,64.3c0.3,0,0.6,0,1,0c0.1,0,0.3,0,0.4,0
		c0-0.1,0-0.4-0.1-0.4c-0.2-0.1-0.5-0.3-0.7-0.3c-0.6,0-1.2,0.1-1.7,0.2c-0.4,0.1-0.7,0.3-1,0.5c0.3,0.1,0.6,0.2,0.9,0.3
		C12.8,64.5,13.2,64.4,13.8,64.3 M8.4,192.3c0.1,0.2,0.1,0.4,0.2,0.5c1.1,0.2,2.3,0.4,3.4,0.6c0.1,0,0.2-0.2,0.2-0.2
		c-0.1-0.1-0.2-0.3-0.3-0.3C10.8,192.6,9.6,192.4,8.4,192.3 M15,182.2c0.2-0.2,0.5-0.3,0.7-0.5c-0.3-0.1-0.5-0.2-0.8-0.2
		c-0.1,0-0.1,0-0.2,0c-0.5,0.1-0.9,0.3-1.4,0.4c0.4,0.1,0.8,0.2,1.3,0.3C14.6,182.2,14.7,182.2,15,182.2 M21.7,67.9
		c-0.3,0-0.6,0-0.9,0c0.2,0.2,0.3,0.4,0.5,0.6c0,0,0.1,0,0.2,0c0.4,0.1,0.8,0.2,1.2,0.3C22.5,68.5,22.2,68.2,21.7,67.9 M2.4,190.1
		c-0.3-0.1-0.6-0.2-0.9-0.3c0.1,0.3,0.2,0.7,0.5,0.8c0.4,0.2,0.8,0.3,1.2,0.4C3,190.7,2.8,190.5,2.4,190.1 M11.4,177.4
		c-0.2,0-0.5-0.2-0.6-0.1c-0.3,0.1-0.5,0.3-0.7,0.5c0.1,0.1,0.2,0.3,0.2,0.3C10.7,177.9,11,177.7,11.4,177.4 M23.1,179.9
		c-0.1,0.1-0.3,0.2-0.4,0.3c0.1,0.1,0.2,0.1,0.4,0.2c0.2,0.1,0.5,0.2,0.7,0.2c0.2,0,0.5-0.2,0.7-0.3c-0.2-0.1-0.3-0.2-0.5-0.2
		C23.7,179.9,23.4,179.9,23.1,179.9 M2.2,188.9c0.2,0.1,0.4,0.2,0.5,0.2c0-0.2,0-0.4-0.1-0.5c-0.1-0.2-0.3-0.3-0.5-0.5
		c-0.2-0.2-0.4-0.3-0.5-0.5c0,0.3,0,0.5,0.1,0.8C1.8,188.6,2,188.7,2.2,188.9 M11.9,180.8c0-0.1-0.1-0.3-0.1-0.4
		c-0.3-0.1-0.7-0.2-1.1-0.4c0,0.1-0.1,0.3,0,0.3C11,180.6,11.3,180.7,11.9,180.8 M9.7,178.8c-0.3,0.1-0.6,0.2-0.8,0.2
		c0.1,0.1,0.2,0.3,0.4,0.3c0.4,0,0.8-0.1,1.2-0.1C10.3,179.1,10.1,178.9,9.7,178.8 M12.7,181.9c-0.1-0.8-0.8-0.4-1.2-0.5
		c0,0-0.1,0.1-0.1,0.2c0.4,0.1,0.7,0.2,1.1,0.4C12.5,182,12.6,182,12.7,181.9 M28.9,70.2c-0.2,0-0.3-0.1-0.5-0.1
		c0,0.2-0.1,0.4-0.1,0.5c0.1,0.1,0.2,0.2,0.4,0.3C28.8,70.7,28.9,70.5,28.9,70.2 M21.4,66.9c-0.2,0-0.3-0.1-0.5-0.1
		c0,0.2,0,0.4-0.1,0.6C21.1,67.3,21.3,67.2,21.4,66.9 M30.8,189.3c0-0.2,0.1-0.4,0.1-0.6c-0.1,0.1-0.4,0.1-0.4,0.2
		C30.5,189,30.6,189.2,30.8,189.3 M19.3,180c-0.1,0.2-0.3,0.3-0.4,0.5c0.2,0,0.4,0,0.6,0C19.4,180.4,19.4,180.2,19.3,180z"/>
	<path class="st0" d="M23.1,25c-0.1,0.5-0.1,0.8-0.2,1.2c0,0.1,0,0.2,0,0.3c0.7,1.4,0.3,1.7,0,3.2c-0.1,0.6-0.3,1.3-0.4,1.9
		c-0.2,3-0.5,5.9-0.7,8.9c-0.1,1.2-0.2,2.3-0.2,3.5c0,0.1,0,0.3,0,0.4c0.8,2.6,0.2,5.3,0.1,7.9c-0.1,1.8,0.1,3.7,0.1,5.5
		c0,1.4,0.1,2.8,0.2,4.3c0,0.1-0.1,0.3-0.2,0.4c-0.1-0.1-0.3-0.3-0.4-0.4c-0.1-0.5-0.2-1.1-0.2-1.6c-0.1-1.1,0.2-2.4-0.2-3.4
		c-0.9-2.2-0.7-4.4-0.4-6.5c0.5-3.8,0.2-7.6,0.4-11.4c0.1-2.1,0.3-4.1,0.4-6.2c0.2-2.5,0.6-4.9,1.2-7.3c0.7-3,1.5-5.9,3.1-8.6
		c1.3-2.3,3-4.4,4.5-6.5c0.1-0.1,0.2-0.2,0.2-0.4c0.1-0.2,0.1-0.4,0.1-0.6c-0.2,0.1-0.4,0.1-0.5,0.3c-1.3,1.6-2.5,3.2-3.7,4.9
		c-2,2.8-3,6.1-4.4,9.2c-0.3,0.5-0.7,1.1-1.2,1.4C20,25.7,19,25,18.9,24.1c-0.1-0.7-0.3-1.2-1-1.5c-0.1,0-0.1-0.2-0.2-0.4
		c0.1,0,0.2,0.1,0.4,0.1c0.8-0.1,0.4-0.5,0.3-0.8c-0.9-2-1.9-4-2.8-6c-0.2-0.5-0.4-0.9-0.7-1.4c0-0.1-0.2-0.1-0.3-0.2
		c0,0.1-0.1,0.2-0.1,0.3c0.3,0.8,0.6,1.7,0.9,2.5c0.8,2.3,1.5,4.7,2.3,7c0.2,0.7,0.5,1.3,0.7,2c0,0.1,0.3,0.6-0.3,0.3
		c0,0-0.3,0.3-0.2,0.4c0.3,2.2,0.5,4.3,0.8,6.5c0,0.2,0.1,0.5,0.1,0.7c0,1.6,0,3.1,0,4.7c0,1.6-0.2,3.1-0.2,4.7
		c0,2.3,0.1,4.6,0.1,6.8c0,2.5-0.2,4.9-0.2,7.4c0,0.6,0.1,1.2,0,1.7c-0.2,1.1-0.4,2.1-0.6,3.2c0,0.2-0.2,0.3-0.3,0.4
		c-0.1-0.2-0.3-0.4-0.3-0.5c0-0.5,0.2-1,0.2-1.5c0-1-0.1-2-0.1-3c0-0.4,0.2-0.8,0.2-1.3c0-2.1-0.1-4.1-0.1-6.2c0-0.2,0-0.3,0-0.5
		c1-2.2,0.5-4.5,0.6-6.8c0.1-1.2,0-2.4,0-3.7c0-1.3,0.2-2.5,0.2-3.7c0-1.3-0.2-2.6-0.4-4c-0.1-0.4-0.5-0.8-0.7-1.2
		c-0.3-0.5-0.4-1,0.2-1.4c0.2-0.2,0.4-0.5,0.3-0.8c-0.7-2.9-1.4-5.8-2-8.7c-0.6-2.8-1.9-5.1-4.3-6.9c-0.1,0-0.1-0.2-0.1-0.2
		c-0.4-1-1-1.6-2.2-1.1c-0.1,0.1-0.5-0.2-0.6-0.3c-0.1-0.2-0.2-0.6-0.1-0.8c0.4-0.5,0.4-0.7-0.3-0.7c-0.5,0-1-0.1-1.4-0.3
		c-0.7-0.4-0.7-1.5,0-2.3c1.5-1.8,3.3-3.3,5.5-4.4c2.5-1.3,5.2-1.9,8-2.2c2.7-0.3,5.3,0.2,7.9,0.7c1.8,0.4,3.3,1.5,4.8,2.6
		c0.7,0.5,1.6,0.9,1.6,2c0,0.5,0.1,1.2-0.2,1.6c-1.1,1.5-2.3,2.9-3.5,4.3c-2.9,3.4-5.6,6.9-6.5,11.3C23.7,23.4,23.4,24.1,23.1,25
		 M28.1,4.1c-0.1,0-0.1,0-0.2,0C26.1,3,24,2.8,22.1,2.5c-1-0.2-2.1,0.4-3.2,0.2c-0.5-0.1-1.1,0.1-1.6,0.3c-1.9,0.6-3.9,1.2-5.2,2.8
		c-0.3,0.4-0.8,0.6-1.3,0.9C10,6.9,9.8,7.8,10.5,8.2c0.6,0.4,1.3,0.9,2,1c2,0.3,4,0.5,6.1,0.6c2.7,0.1,5.3-0.3,7.9-1.3
		c1.1-0.5,2.3-0.7,3.1-1.6c0.4-0.5,0.6-1,0.3-1.6c-0.2-0.4-0.2-1.3-1.1-0.8c-0.1,0-0.3-0.2-0.4-0.3c0.1-0.1,0.3-0.3,0.4-0.4
		c-0.6-0.3-1.2-0.6-1.8-0.9c0,0-0.2,0.1-0.2,0.1c0,0.1,0.1,0.2,0.1,0.3C27.2,3.5,27.7,3.8,28.1,4.1 M18.7,21.3
		c0.4,0.9,0.6,2,1.2,2.8c0.7,1,1.1,0.8,1.5-0.4c1.1-2.8,2.1-5.7,3.9-8.2c1-1.4,1.9-3,2.9-4.5c0.1-0.1,0.1-0.3,0.2-0.4
		c-0.2,0-0.4-0.1-0.5,0c-1.9,0.3-3.9,0.7-5.8,0.9c-2.1,0.2-4.3,0.3-6.5,0.3c-0.6,0-0.9,0.3-0.7,0.8c0.4,1.2,0.7,2.4,1.2,3.5
		C16.9,17.9,17.7,19.5,18.7,21.3 M30.1,3.8c0.5,0.2,1.1,0.3,1.6,0.5c0.1,0,0.3-0.1,0.5-0.1C32.1,4.1,32,4,31.9,3.9
		c-0.4-0.4-0.8-0.7-1.3-1c-0.5-0.3-0.9-0.8-1.4-0.9c-1.5-0.5-3.1-0.8-4.8-0.6c-0.2,0-0.3,0-0.5,0.1c0.1,0.1,0.2,0.3,0.4,0.4
		c0.2,0.1,0.4,0.1,0.6,0.1c1.2,0.3,2.3,0.6,3.5,1C29,3,29.5,3.4,30.1,3.8 M15.5,10.7c0.4,0,0.8,0,1.3,0c0.3,0,0.5-0.2,0.8-0.2
		c-0.3-0.1-0.5-0.3-0.8-0.3c-1.3-0.2-2.6-0.2-3.9-0.4c-0.7-0.1-1.3-0.5-1.9-0.7c-0.2-0.1-0.5,0-0.7,0c0.6,0.2,0.2,1.2,1.1,1.2
		C12.7,10.4,14,10.6,15.5,10.7 M12,4.1c0.4-0.2,0.8-0.4,1.2-0.6c1.2-0.5,2.3-1,3.5-1.3c0.9-0.3,1.9-0.4,2.9-0.6
		c0.2,0,0.4-0.3,0.6-0.4c-0.2,0-0.4-0.2-0.6-0.1c-0.9,0.1-1.8,0.2-2.7,0.4c-2,0.4-3.8,1.1-5.2,2.6C11.7,4,11.8,4.1,12,4.1 M30.1,8.5
		C30.1,8,29.9,8,29.5,8.1c-2.1,0.7-4.2,1.3-6.3,1.9c-0.2,0.1-0.5,0.1-0.7,0.2c0.3,0.1,0.5,0.2,0.8,0.2C25.7,10.5,27.8,9.6,30.1,8.5
		 M7.5,8c0.1-0.6,0.3-1.1,0.4-1.7c0,0-0.5-0.2-0.5-0.2C7,6.8,6.6,7.6,6.4,8.4c0,0.1,0.5,0.4,0.8,0.6c0-0.2,0.1-0.5,0.2-0.7
		C7.4,8.2,7.4,8.2,7.5,8 M12.6,12.6c0.3,0.2,0.6,0.5,0.7-0.2c0-0.1,0.1-0.1,0.1-0.2c0.1,0.1,0.2,0.2,0.2,0.2
		c-0.2,0.5-0.3,0.9,0.4,0.9c0.1,0,0.3-0.7,0.2-1c-0.1-0.3-0.5-0.7-0.8-0.8c-0.4-0.1-0.9,0.1-1.4,0.1c0.2,0.2,0.3,0.4,0.5,0.7
		C12.5,12.3,12.5,12.4,12.6,12.6 M9.3,7.5c0,0.3-0.1,0.6,0,0.9c0,0.1,0.3,0.2,0.4,0.2C9.7,8.4,9.6,8.1,9.5,7.9
		C9.5,7.8,9.5,7.7,9.3,7.5 M9,6.3c0,0.2,0,0.4,0,0.6c0,0.1,0.2,0.1,0.3,0.2c0.1-0.2,0.2-0.5,0.3-0.7C9.6,6.4,9.3,6.3,9,6.3
		 M31.2,5.4C31.1,5.2,31,4.9,31,4.7c-0.1,0-0.2,0-0.3,0.1C30.8,5,30.9,5.2,31.2,5.4 M17.7,29.2c-0.2,0.1-0.3,0.2-0.5,0.3
		c0.1,0.1,0.2,0.3,0.4,0.4C17.7,29.8,17.8,29.5,17.7,29.2 M22.6,27.6c0.1,0.2,0.1,0.4,0.2,0.6c0-0.1,0.1-0.1,0.1-0.2
		c0-0.2-0.1-0.5-0.1-0.7C22.7,27.3,22.6,27.4,22.6,27.6z"/>
	<path class="st0" d="M27.8,17.7c0.1-0.1,0.2-0.2,0.3-0.3c0,0.1,0.1,0.2,0.1,0.3c0,0.1-0.2,0.2-0.3,0.3c-0.3,0.2-0.5,0.5-0.8,0.7
		C27.3,18.3,27.5,18,27.8,17.7z"/>
	<path class="st0" d="M29.3,16.1c0,0.1,0.1,0.3,0,0.3c-0.1,0.1-0.3,0.1-0.5,0.1C29,16.4,29.1,16.3,29.3,16.1z"/>
	<path class="st0" d="M14.6,70.1c-0.2-0.4-0.3-0.9-0.6-1.1c-0.9-0.7-1.2-1.4-0.9-2.4c0.2-0.7,1.3-1.4,2.1-1.4c0.6,0,1.3,0,1.9,0.2
		c1.2,0.5,1.5,2,0.6,2.9c-0.6,0.6-1.2,1-2.1,1c-0.2,0-0.4,0.2-0.6,0.2c0.2,0.1,0.4,0.2,0.5,0.3c0.2,0.3,0.6,0.6,0.6,0.9
		c0,0.2-0.4,0.5-0.7,0.7c-0.1,0-0.5-0.3-0.6-0.5C14.6,70.8,14.6,70.5,14.6,70.1 M16.3,68.1c-0.5-0.2-1-0.4-1.5-0.5
		c-0.1,0-0.4,0.3-0.6,0.4c0.1,0.2,0.3,0.4,0.4,0.5c0.6,0.1,1.2,0.2,1.7,0.2C16.4,68.5,16.4,68.3,16.3,68.1 M17.3,67.4
		c0-0.5,0-0.5-0.7-0.3c-0.2,0.1-0.3,0.2-0.5,0.3c0.3,0.1,0.5,0.2,0.8,0.3C17.1,67.8,17.2,67.7,17.3,67.4 M15.7,66.6
		c0.2-0.1,0.3-0.2,0.5-0.2c-0.1-0.2-0.3-0.4-0.4-0.5c-0.2,0-0.5,0.1-0.7,0.2C15.2,66.2,15.4,66.4,15.7,66.6 M14.2,66.5
		c-0.2-0.7-0.5-0.1-0.6,0c-0.1,0.3-0.1,0.6-0.2,0.9c0.2-0.1,0.3-0.2,0.5-0.3C14.1,67,14.1,66.8,14.2,66.5 M15.2,71
		c0.2-0.1,0.4-0.1,0.6-0.2c-0.2-0.2-0.3-0.3-0.5-0.5C15.2,70.5,15.1,70.7,15.2,71 M14.7,66.6c-0.1,0.2-0.2,0.5-0.3,0.7
		c0.2-0.1,0.5-0.1,0.7-0.2C15.1,66.9,14.9,66.8,14.7,66.6z"/>
	<path class="st0" d="M25.7,70c0.1,0.5,0.1,1,0.2,1.5c0,0-0.1,0.1-0.2,0.1c-0.9,0-1.8,0.1-2.8,0c-0.3,0-0.7-0.3-0.8-0.5
		c-0.1-0.3,0-0.7,0.2-1c0.1-0.2,0.5-0.2,0.8-0.2c0.1,0,0.3,0.1,0.3,0c0.6-0.8,0.6-0.1,0.7,0.2c0,0,0.3,0,0.5-0.1
		C25,69.8,25.3,69.5,25.7,70c-0.3,0.1-0.4,0.3-0.6,0.4c-0.1,0.1-0.3,0.3-0.4,0.4c0.1,0,0.2,0.1,0.2,0.1c0.2-0.1,0.5-0.1,0.6-0.2
		C25.7,70.5,25.7,70.3,25.7,70 M22.7,70.6c0.1,0.2,0.1,0.5,0.2,0.7c0.2-0.1,0.3-0.1,0.5-0.2C23,71.1,23.5,70.2,22.7,70.6z"/>
	<path class="st0" d="M21.9,73.7c1.4-0.2,2.8-0.3,4.1-0.5c0.1,0,0.3,0.1,0.4,0.2c-0.1,0-0.3,0.1-0.4,0.1c-2.5,0.2-5,0.4-7.5,0.7
		c-0.5,0.1-1,0.3-1.5,0.5c-0.9,0.2-1.8,0.4-2.7,0.6c-0.1,0-0.3-0.1-0.4-0.2c0.1-0.1,0.2-0.2,0.3-0.2c1.9,0.1,3.5-1.2,5.4-1.1
		C20.4,73.9,21.1,73.8,21.9,73.7z"/>
	<path class="st0" d="M19.7,71.6c-0.1-0.7-0.2-1.3-0.2-1.9c0,0,0.3-0.1,0.5-0.1c0.1,0,0.2,0.1,0.3,0.1c0.3,0.1,0.8,0,0.9,0.2
		c0.3,0.5,0.4,1.1,0.6,1.6c0,0.1-0.2,0.3-0.3,0.4c-0.1-0.1-0.2-0.2-0.3-0.3c-0.2-0.2-0.3-0.4-0.5-0.6c-0.2-0.2-0.4-0.5-0.6-0.7
		c-0.1,0.4-0.2,0.7-0.3,1.1C19.8,71.6,19.8,71.6,19.7,71.6z"/>
	<path class="st0" d="M20.8,73.1c-1.3-0.5-2.5,0-3.7,0.1c-0.6,0-1.2,0-1.8-0.1c0,0-0.1-0.1-0.1-0.1c0.1-0.1,0.2-0.2,0.3-0.2
		c0.3,0,0.6,0.2,0.9,0.2c0.8,0,1.6-0.1,2.4-0.2c0.7-0.1,1.4-0.1,2.1-0.1c0.8-0.1,1.5-0.2,2.3-0.3c0.2,0,0.4,0.1,0.5,0.1
		c-0.2,0.1-0.3,0.2-0.5,0.3C22.5,72.8,21.7,73,20.8,73.1z"/>
	<path class="st0" d="M12.4,69.7c0.2,0.2,0.3,0.3,0.4,0.4c0.4,0.4,0.7,0.8,0.9-0.1c0-0.1,0.1-0.2,0.1-0.3c0,0.1,0.1,0.2,0.1,0.3
		c0.1,0.5,0.1,1,0.2,1.5c0,0.1-0.2,0.2-0.3,0.2c-0.2-0.1-0.4-0.2-0.5-0.3c-0.4-0.4-0.6-0.4-0.7,0.2c0,0.1-0.2,0.2-0.3,0.3
		c-0.1-0.1-0.2-0.3-0.2-0.4C12.2,71,12.3,70.3,12.4,69.7z"/>
	<path class="st0" d="M18.8,71.4c-0.2,0.4-0.3,0.6-0.7,0.2c-0.1-0.1-0.1-0.1-0.2-0.1c0.1,0,0.3-0.1,0.3-0.1c0-0.3-0.1-0.5-0.2-0.8
		c0-0.3,0-0.6,0-0.9c0-0.1,0.3-0.1,0.5-0.2c-0.1,0.1-0.2,0.3-0.2,0.4c0,0.3,0,0.5,0.1,0.8C18.6,70.9,18.8,71.1,18.8,71.4z"/>
	<path class="st0" d="M27.4,74.5c-0.1,0-0.1,0-0.1,0c0.1-0.2,0.1-0.5,0.2-0.7c0,0,0.2,0,0.3,0C27.6,74,27.5,74.2,27.4,74.5z"/>
</g>
</svg>
